<?xml version="1.0" encoding="utf-8"?>
<!-- Generator: Adobe Illustrator 27.8.0, SVG Export Plug-In . SVG Version: 6.00 Build 0)  -->
<svg version="1.1" id="Layer_1" xmlns="http://www.w3.org/2000/svg" xmlns:xlink="http://www.w3.org/1999/xlink" x="0px" y="0px"
	 viewBox="0 0 1200 1200" style="enable-background:new 0 0 1200 1200;" xml:space="preserve">
<style type="text/css">
	.st0{fill:url(#SVGID_1_);}
	.st1{fill:url(#SVGID_00000016038727439274198380000001690038607732140423_);}
	.st2{fill:url(#SVGID_00000134958946704623296450000012992020060740138887_);}
	.st3{fill:url(#SVGID_00000160904125359287090380000011070593942200109991_);}
	.st4{fill:url(#SVGID_00000031920827541793183780000013168962132287151260_);}
	.st5{fill:url(#SVGID_00000003789927263838013930000017888979581630296217_);}
	.st6{fill:url(#SVGID_00000093899020759421074130000010427984181127461276_);}
	.st7{fill:url(#SVGID_00000129178835260589214040000007459240837656181408_);}
	.st8{fill:url(#SVGID_00000029019809249567722540000007948861332116280210_);}
	.st9{fill:url(#SVGID_00000020374620257833496060000002528943193329741208_);}
	.st10{fill:url(#SVGID_00000024700939794843660410000014009013180908637618_);}
	.st11{fill:url(#SVGID_00000024682348516648984940000008043280070757218954_);}
	.st12{fill:none;stroke:#FFFFFF;stroke-width:3.2585;}
	.st13{fill:#FF3C00;}
</style>
<g>
	<g>
		
			<linearGradient id="SVGID_1_" gradientUnits="userSpaceOnUse" x1="-2272.2207" y1="1512.9907" x2="-2515.1782" y2="1609.0437" gradientTransform="matrix(-0.9575 0.2884 -0.2884 -0.9575 -882.1071 2460.8027)">
			<stop  offset="0" style="stop-color:#B529DE"/>
			<stop  offset="0.1235" style="stop-color:#934CDF"/>
			<stop  offset="0.5215" style="stop-color:#2AB8E1"/>
			<stop  offset="0.6987" style="stop-color:#00E3E2"/>
		</linearGradient>
		<path class="st0" d="M758.3,388l-48.6,105.4c0,0,15.9-61.2,39.1-99.7c-1.5,1.5-3.1,3-4.6,4.5c8.5-14.7,18-28.8,28.3-42.3
			c0.1-0.1,0.1-0.3,0.2-0.5c0,0,0.1,0.1,0.1,0.1c18.1-23.8,38.6-45.8,60.2-66.5c72.6-68.1,165.8-121.4,267.2-125.3
			c21.1-0.7,42.2,0.9,62.6,5.3c-10.4,0.8-20.7,1.6-30.9,2.9c-2.7,0.3-5.3,0.7-8,1.1c17.4,5.8,35,12.3,49.9,23.1
			c-5.9-3-12.2-5.1-18.4-6.9c-15.1-4.2-30.8-6.7-46.4-8.4c13,5.3,25.8,10.9,37.9,17.9c-5.9-2.2-11.9-3.8-17.9-5.4
			c-14.2-3.6-28.6-6.4-43-8.9c14.8,5.9,29.2,13.2,41.4,23.3c-5.8-3.3-11.8-5.9-17.9-8.2c-15.8-5.5-32.4-8.9-49-10.8
			c11.5,3.7,22.8,7.8,33.6,13.1c6.1,3.1,12.1,6.4,17.4,10.7c-5.9-3.3-12.3-5.5-18.7-7.4c-18.7-5.3-38.4-7.9-57.8-9.4
			c-1.5,0.6-3,1.1-4.5,1.6c0.3,0.1,0.7,0.2,1,0.3c22.3,7,45,14.3,65.2,26.4c-7.1-3.1-14.6-5.3-22-7.3c-21.1-5.4-42.8-8.8-64.4-11.2
			c-2.8,1.2-5.5,2.4-8.2,3.6c1.2,0.4,2.3,0.7,3.5,1c24.2,7.5,48.8,14.4,71.6,25.4c-8-2.7-16.2-4.6-24.4-6.3
			c-22.8-4.7-45.9-8.3-69-11.5c-1.8,0.9-3.6,1.8-5.4,2.7c10.2,3.4,20.4,6.9,30.5,10.5c16.1,6,32.7,11.8,47.6,20.4
			c-7.7-3.3-16.4-5.7-24.5-7.8c-23.1-5.9-46.7-10.4-70.2-14.5c-1.7,0.9-3.4,1.9-5.1,2.8c21.8,7,43.6,14.3,65.2,22.1
			c9.2,3.4,18.5,6.8,27.4,10.9c-32.8-9.5-66.4-15.9-99.9-22.4c7.8,2.1,15.6,4.3,23.4,6.8c16.8,5.7,34.2,11.4,48.4,22.3
			c-3.8-2.3-7.8-4.1-11.9-5.7c-12.3-4.6-25.3-7.5-38.2-9.8c-14.9-2.6-30.1-4.6-45.2-5.9c9.6,6,19.5,11.7,29.5,17
			c14.3,7.5,29.1,14.2,44.8,18.6c-16.2-2.1-32.1-6.8-47.6-12.1c-13.2-4.7-26.1-9.9-38.9-15.8c-0.6,0.4-1.2,0.8-1.8,1.2
			c2.8,2.7,5.7,5.3,8.7,7.9c9.9,8.4,20.6,16,31.9,22.5c5.5,3.1,11.8,6.3,17.7,8.7l6.1,2.5l6.3,2.1c3.5,1.3,9.1,2.5,12.8,3.5
			c-2.3-0.3-7.7-0.9-9.9-1.2c-2-0.4-7.8-1.5-9.9-1.9c-3.8-1-9.3-2.3-13-3.6c-22.3-7.2-43.4-18.5-62-32.8c-0.4,0.3-0.8,0.5-1.2,0.8
			c9,10.2,19.1,19.4,30.1,27.4c14,10.2,29.7,18.1,46.7,21.9c-22.3-2.1-43.6-10.8-62.7-23.1c14.8,15.1,32.3,27.8,52.5,34.6
			c-31.9-6.4-60.2-26.1-82.1-49.9c-0.1,0-0.1,0.1-0.2,0.1c1.6,2.4,3.4,4.8,5,7c14.4,18.8,31.9,36.3,53.8,45.9
			c3.7,1.5,7.5,2.8,11.5,3.8c-4-0.4-8.1-1.1-12.1-2.2c-26.6-7.4-50.7-26.4-69.3-46.6c0,0,0,0,0,0c1.4,4.1,3.2,8.1,5.1,12
			c6.2,12.3,14.4,23.8,24,33.8l4.2,4.3l4.5,4.1c2.5,2.5,6.5,5.6,9.3,7.8c2.7,2.2,7,5.1,9.9,7.2c-1.9-1-6.3-3.3-8.2-4.2
			c-0.7-0.3-2.1-1.1-2.7-1.5c-3.1-1.9-7.6-4.4-10.5-6.5l-5.1-3.5c-1.6-1.3-5.8-4.5-7.4-5.7c-11.1-9.3-21.4-20-29.4-32.2
			c7.2,17.2,18,33,31.2,46.1c1.4,1.6,5.2,4.8,6.8,6.3c2.7,2.5,6.8,5.4,9.7,7.7c-3.2-1.9-7.7-4.2-10.7-6.3c-1.8-1.3-6-4-7.7-5.3
			c-2.3-1.8-5.2-3.9-7.4-5.9c-8.3-7.2-16-15.2-22.7-24c6.1,16.5,15.8,32,27.6,45.1c1.4,1.5,4.8,5.4,6.3,6.8c1.5,1.4,5.1,5,6.7,6.5
			l-5-3.6c-17.1-12.4-31.9-28-42.6-46.3c9.5,24.2,24.6,46.3,45.3,62.3c-21.1-12.6-38.3-30.9-50.9-52.1c4.8,11.8,10.8,23.3,17.8,34
			c4.5,7.2,9.9,14.2,15.3,20.8l-4.7-4.5c-18.2-17.7-33.5-38.6-44.3-61.7c2.8,23.4,12.3,45.9,26.1,64.9c5.5,7.6,11.8,14.7,18.6,21.3
			c-23.6-17.5-42.2-41.8-52.5-69.3c1.4,9,3.8,17.9,6.7,26.6c5.8,17.7,14.8,35.1,24.4,51.2l-8.6-11.5c-11.3-16.2-21.8-33.5-28.8-52.1
			c1.7,9,3.9,18,6.7,26.8c6.1,18.9,15,36.9,27.5,52.5c-20.7-20.8-35-47.1-43.7-75.2c1.3,12.5,3.9,25,7.7,37l2.3,7.2l2.8,7.1
			c1.5,4.2,4.3,9.9,6.1,14c1.9,4,5,9.6,7.1,13.6c-1.5-2.2-5.1-7.4-6.5-9.5c-2.5-3.7-5.8-9.4-8.1-13.2c-1.1-2.1-4.3-8.1-5.4-10.3
			c-1.1-2.4-3.8-8.4-4.8-10.6c-1.4-3.5-3-7.4-4.2-11c-1.8-5.4-3.5-10.8-5-16.3c0.3,26.3,6.2,53.2,22.1,74.6
			c-18.2-19.5-27.9-45.4-31.6-72c-0.6,6-0.7,12-0.3,18.1c0.5,8.8,2.2,17.6,4.3,26.1c0.8,2.8,2.3,7.7,3.2,10.6
			c1.4,4,2.9,7.9,4.4,11.9c-2-3.7-4.1-7.4-6-11.2c-1.2-2.7-3.5-7.5-4.7-10.2c-3.3-8.4-6.4-17.3-8.2-26.2c-1.2-6.1-2-12.3-2.3-18.6
			c-5.2,21.2-7.2,43.6-1.2,64.8c1.2,4,2.8,8,4.6,11.9c-2.3-3.6-4.5-7.3-6.2-11.2c-6.7-15.2-9.2-32.2-9.1-49.3
			c-5.2,23.2-3,48.1,5.1,70.5c-9.6-18.2-15-38.8-15.2-59.4c-2.3,5.5-4.5,11-6.6,16.5c-5.9,16.1-10.9,32.7-15,49.4
			c1.8-17.2,4.5-34.4,8.2-51.4C753,406.5,755.3,397.2,758.3,388z"/>
		
			<linearGradient id="SVGID_00000167369822218481698790000012064685097411692218_" gradientUnits="userSpaceOnUse" x1="-1704.8109" y1="1888.2605" x2="-1860.0454" y2="2124.0979" gradientTransform="matrix(-0.8559 0.5171 0.5171 0.8559 -1602.6906 -356.4328)">
			<stop  offset="0" style="stop-color:#B529DE"/>
			<stop  offset="0.1235" style="stop-color:#934CDF"/>
			<stop  offset="0.5215" style="stop-color:#2AB8E1"/>
			<stop  offset="0.6987" style="stop-color:#00E3E2"/>
		</linearGradient>
		<path style="fill:url(#SVGID_00000167369822218481698790000012064685097411692218_);" d="M749.5,421.2c-0.5,9-1.9,17.8-4,26.6
			c10.5-29.7,11-61.9,4.4-92.6c4.3,9.5,8,19.3,10.9,29.3c4.7,15.5,7.5,31.9,8.1,48.2c0.4,4.8,0,11.6-0.1,16.5l1.1-8.2
			c3.8-31-0.7-63.6-11.1-93.6c2.1,1.8,4.3,3.5,6.4,5.2c0.5,0.9,1,1.9,1.5,2.8c7.8,15,14,30.9,18.2,47.3c4.4,16.4,6.9,33.7,6.9,50.7
			c0.2,5-0.5,12.2-0.7,17.2l1.4-8.5c4.8-31.1,1.4-64.1-8.1-94.7c0.3,0.2,0.6,0.5,0.9,0.7c7.6,18.9,14.8,38.1,21.2,57.4
			c6.7,20.6,13.1,41.5,16,63c-0.4-21.9-4.5-43.6-8.9-65c-3-14.2-6.3-28.3-10-42.3c2.5,1.8,5.1,3.5,7.7,5.3
			c2.9,7.2,5.7,14.4,8.4,21.6c7.8,21,15.2,42.4,20.6,64.2c2.6,10.9,5,22,4.5,33.3c1.7-11.2,0.5-22.8-0.9-34
			c-1.5-11.3-3.5-22.5-5.9-33.6c-2.7-12.5-5.6-24.9-8.8-37.2c0.8,1.7,1.7,3.4,2.5,5.1c8.9,18.3,17.8,36.8,23.8,56.2
			c-2-16-5.8-31.8-10-47.4c8.2,14.8,15.7,30,22.5,45.4c9,20.7,16.7,42,20.8,64.3c-1.7-22.8-7.2-45.1-13.9-66.9
			c-4-12.7-8.5-25.2-13.3-37.5c5.3,9.5,10.5,19.1,15.5,28.8c6.5,12.9,13,25.8,17.4,39.6c-2.1-14.4-6.3-28.5-10.6-42.4
			c-2-6.5-4.2-13-6.3-19.4c2.5,1.3,5,2.7,7.5,4c8,16.7,15.6,33.9,22.4,51.1c7.6,20.1,15.4,40.4,17.6,61.9
			c0.2-21.8-5.3-43.3-10.6-64.2c-3.3-12.5-7-24.8-11-37c11.3,15.6,21.8,32,31.1,48.8c11.4,20.7,21.5,42.5,26.3,65.7
			c-2.1-20.8-8.5-41.3-16.2-60.6c-6.6-16.4-14.1-32.3-22.4-47.8c0.2,0.1,0.4,0.2,0.6,0.2c8.7,8.5,17.2,17.6,24.9,27
			c4.6,5.6,9,11.5,12.8,17.7c3.7,6.2,7.4,12.8,7.9,20.2c0.6-7.3-2.1-16.6-6.5-26.3c4.5,7.3,8.8,14.8,12.9,22.3
			c10.1,18.9,19.7,38.4,23.8,59.6c-1.6-21.7-9.1-42.6-17.1-62.8c-5.8-14.2-12.1-28-19-41.5c0.8,0.3,1.6,0.6,2.4,0.9
			c5.9,8.9,11.6,17.8,17.2,26.8c7.5,12.6,15.6,25.1,20.6,39c-2.7-14.7-8.7-28.5-14-42.3c-2.4-6-4.9-11.9-7.5-17.8
			c0.5,0.1,0.9,0.3,1.4,0.4c13.1,18.6,25,38.4,35.5,58.6c10.9,21.5,20.3,43.9,25,67.8c-2.2-24.3-9.5-48-18.2-70.8
			c-5.2-13.1-10.9-26-17.1-38.6c7.5,8.1,14.4,16.7,20.6,25.7c10,14.6,18.6,30.6,21.6,48.2c-1.1-25.3-13.1-51.2-27.8-73.8
			c2,2,4.1,3.9,6.1,5.9c13.1,13.2,25.4,27.2,35.2,43.1c-7-18.2-16.6-35.2-27.6-51.4c1.1,0.2,2.2,0.5,3.3,0.7
			c10.4,11.7,20.3,24.1,29.3,36.9c10.8,15.7,20.9,32.4,26.1,50.9c-1.3-9.6-4.2-19-7.7-28.1c-7.7-19.7-17.8-38.3-29.2-56.1
			c5.4,1,10.8,1.8,16.2,2.6c2.5,2.5,4.9,5.1,7.2,7.7c12.4,14.1,24,29.5,29.8,47.6c-1.4-12.8-6.1-25.2-11.6-36.9c-2-4-4-8-6.2-11.9
			c5.9,5.5,12,10.8,18.4,15.8c10.6,8.1,21.9,15.7,34.4,20.3c-11.3-6.7-20.7-15.9-29.4-25.7c-3.8-4.4-7.5-8.9-11-13.5
			c7.6,0.5,15.1,0.9,22.3,0.9c5.4,0,10.9,0,16.3-0.2c-15.4-5-30.5-9.7-45.5-14.7c21.8-2,43.6-5.7,64.3-13c-9.4,2-18.8,3.2-28.3,4
			c-21.8,1.5-43.9,0.8-65.7-1.4c-0.3-0.1-0.7-0.2-1.1-0.4c-2.6-0.9-5.2-1.9-7.8-2.8c21.8-4.2,43.4-11,61.7-23.8
			c-7.4,3.7-15.2,6.5-23.1,8.6c-21.2,5.2-43.3,6.6-65,5.2c-2.6-1-5.2-2-7.8-3.1c21.9-2.2,48.1-6.9,63.2-20.6
			c-7.1,5-15.5,7.4-23.9,9.1c-20.1,3.4-40.8,2.8-61.1,0.5c21.5-3.7,47.3-9.8,60.4-21.6c-7.4,5.2-16.3,7.4-25,9.2
			c-19.6,3.5-39.7,4.4-59.6,4.1c-0.6-0.2-1.1-0.5-1.7-0.7c15.8-1.5,31.4-5.5,45.8-12c9.3-3.9,18-9.5,26.3-15.1
			c-4.1,1.9-9.4,4.9-13.6,6.5c-26.2,11.1-56,14.4-83.7,8c19.6-3.2,38.8-9.1,56.5-18c2.2-1.2,7.7-4.3,9.8-5.5
			c2.1-1.4,7.2-4.7,9.3-6.1c-2.3,1.1-7.7,3.8-10,4.9c-2.2,0.9-8,3.2-10.2,4.2c-2.3,0.8-8.2,2.7-10.5,3.4c-5.5,1.5-12.2,3.1-17.8,4.1
			c-15.3,2.7-31.1,3.8-46.8,2.9c17.7-5.2,35.3-10.7,52.5-17.4c8.6-3.4,17.3-7,25.2-12c-8.4,3.8-17.3,6.2-26.3,8.4
			c-23.7,5.6-47.8,9.5-72,12.8c-0.1,0-0.2-0.1-0.2-0.1c3.6-1.1,7.1-2.2,10.7-3.4c35.6-12,71.2-26.5,101.4-49.1
			c-10.7,6.5-21.9,12-33.3,16.8c-31,12.5-63.7,21-96.6,26.8c-1.3-0.7-2.7-1.4-4-2.1c39.9-7.2,84.5-33.7,111.2-51.5
			c-30.7,16.9-91.5,45.6-132.3,40.4c-0.6-0.3-1.2-0.7-1.9-1c1.4-0.3,2.7-0.6,4.1-0.9c28.2-6.4,55.8-15.9,81.8-28.5
			c2.6-1.3,9-4.7,11.5-6c2.5-1.4,8.6-5,11.2-6.4c-4.6,2-11.1,5-15.8,6.8c-10.2,4.1-21.8,7.9-32.4,10.9c-23.7,6.5-48.2,11-72.7,12.8
			c41.4-7.9,87.9-30.1,119.3-46.7c-25.2,10.8-51.1,20-77.5,27c-19.5,5-39.5,9.2-59.6,9.2c-3.6,0-7.2-0.2-10.8-0.5
			c-1.6-0.9-3.1-1.8-4.7-2.6c39.4-6.6,85.9-27,113.5-40.1c-24.7,9.2-49.9,17-75.5,22.8c-18.7,4.1-37.9,7.4-57,6.5
			c-2.2-1.2-4.4-2.5-6.5-3.8c38.2-7,86.1-27.5,112.7-39.1c-35.4,11.7-71.8,22.3-108.8,27c-5,0.5-10.2,1-15.5,1.2
			c28.7-6.3,59.6-20.9,83.4-33.1c-29.1,10.9-59.5,20.7-90.5,23.4c-5.6,0.4-11.8,0.5-17.5-0.4c-1-0.6-1.9-1.1-2.9-1.7
			c25.6-4.1,49.5-18.7,67.9-36.7c-25.6,18.6-59.5,31.9-90.9,23c-16-9.7-32-19.4-48-29.2c10.2,12.4,21.1,24.2,32.5,35.4
			c-0.1,0.1-0.1,0.1-0.1,0.1c3.1,4.7,5.9,9.8,8.5,14.9C742.7,356.4,751.2,388.8,749.5,421.2z"/>
		
			<linearGradient id="SVGID_00000134954379697748481960000000215111659892526266_" gradientUnits="userSpaceOnUse" x1="-2124.0889" y1="578.8786" x2="-2542.5984" y2="585.5482" gradientTransform="matrix(-0.7469 0.665 -0.665 -0.7469 -463.2717 2135.8306)">
			<stop  offset="0" style="stop-color:#B529DE"/>
			<stop  offset="0.1235" style="stop-color:#934CDF"/>
			<stop  offset="0.5215" style="stop-color:#2AB8E1"/>
			<stop  offset="0.6987" style="stop-color:#00E3E2"/>
		</linearGradient>
		<path style="fill:url(#SVGID_00000134954379697748481960000000215111659892526266_);" d="M731.4,375.4c1.1-11,2.7-22,4.9-32.9
			c-21.6-15.2-33.8-42-41.7-66.3c5.6,11.5,12.5,22.5,20.4,32.4c6.8,8.4,14.7,16.4,24,21.6c0.5-2,1-4,1.5-6
			c-12.6-19.9-20.9-43.3-20.7-67c1.8,11.4,5.9,22.3,11.2,32.5c3.8,7.3,8.3,14.1,13.4,20.4c1-3.3,2-6.6,3.1-9.9
			c-11.8-21.9-17.5-46.4-21-70.8c3.6,11.8,8.1,23.3,13.2,34.5c3.7,7.8,7.8,15.5,12.6,22.6c0,0,0,0,0,0c-10-26.7-12.5-55.6-11.2-83.9
			c1.2,14.2,3.8,28.3,7.5,42c1,3.6,2.1,7.2,3.2,10.8c-5-21-6.2-42.8-5.2-64.3c1.2,14.2,3.8,28.3,7.5,42c2.4,9.1,5.5,18.1,9.4,26.7
			c0.9-2,1.8-3.9,2.8-5.8c-0.7-1.4-1.3-2.7-1.6-3.5c-10.4-25.1-13.5-52.9-11.1-79.8c1.2,24.6,7,49.5,18.9,71.1
			c2.2-4.1,4.4-8.2,6.8-12.3c-0.9-1.6-1.7-3.2-2.3-4.6c-10.7-22.6-14.5-48.4-12.2-73.2c1.1,22.3,7.4,44.4,18.7,63.7
			c0.5,0.7,1.3,2.1,2.2,3.3c1.2-1.9,2.3-3.7,3.5-5.6c-2.1-4.5-4-9.1-5.3-13.9c-5.8-19.6-6.4-41-1.7-60.9c-1.4,16.5,1,33.2,6.5,48.8
			c2,5.4,4.5,10.7,7.4,15.8c0-0.1,0.1-0.1,0.2-0.2c-1.4-3.2-2.6-6.6-3.5-9.9c-5.8-19.6-6.4-41-1.7-60.9c-1.4,16.5,1,33.2,6.5,48.8
			c1.6,4.3,3.5,8.5,5.6,12.6c1.3-1.7,2.6-3.4,3.9-5.1c-6.2-17-7.8-35.4-7.3-53.4c1.6,9.7,4.1,19.3,7.4,28.5c1,2.7,2,5.3,3.2,7.9
			c-4.5-18.2-4.6-37.6-0.3-55.7c-1.4,16.5,1,33.2,6.5,48.8c1,2.8,2.2,5.5,3.4,8.2c0.2-0.2,0.3-0.4,0.5-0.5
			c-4.8-21.4-5.8-43.4-4.3-65.2c1.1,11.8,3.2,23.4,6.1,34.8c1.8,7.2,3.9,14.4,6.5,21.4c2.5-2.7,5.2-5.3,7.8-7.9
			c-7.2-28.7-5.9-58.9-0.4-87.7c-1.1,15.5-0.5,31,1.5,46.4c1.5,11.2,4,22.4,7.8,33c0.8-0.7,1.6-1.5,2.4-2.2c-5-15.2-4.3-31.8-1-47.4
			c-0.1,8.9,0.6,17.7,2.7,26.3c0.9,3.2,1.9,6.5,3.1,9.6c-0.2-1-0.3-2.1-0.4-3.1c-2.1-24.5,6.6-48.5,17.8-69.8
			c-4.6,12.6-7.7,25.8-9,39.1c-0.9,10.2-0.7,20.6,2.1,30.3c0-0.6-0.1-1.2-0.1-1.8c-0.2-18.9,8.1-36.5,19.1-51.3
			c-3.7,8-6.8,16.4-8.5,25.1c-0.8,4.5-1.3,9.1-1.3,13.7c1.9-20.5,15.2-39.5,30.3-53c-12.4,15.6-22.8,35.6-20.2,56
			c3.3-2.1,6.6-4.2,9.9-6.2c-0.7-17,5.5-34,17.3-46.9c-7.4,11.4-11,25.1-10,38.4c5-20.8,20.9-36.8,37.9-48.6
			c-8.2,7.9-15.3,17.1-20.6,27.2c-3.2,6.3-5.7,13-6.5,19.9c0.4-1.2,0.8-2.4,1.3-3.7c7-17.5,21.5-30.6,37.3-40.1
			c-6.5,6-12.6,12.5-17.4,19.9c-3.5,5.5-6.6,11.5-8.5,17.8c1.9-0.9,3.8-1.7,5.8-2.5c0.5-1.6,1-3.2,1.6-4.8
			c7-17.5,21.5-30.6,37.3-40.1c-6.5,6-12.6,12.5-17.4,19.9c-3.9,6.2-7.3,13-9,20.1c4-1.5,8-2.8,12.1-4.1c2.1-3.5,4.3-6.5,6.8-9.7
			c11-13.9,24.8-25.9,41.1-33.2c-6.5,4.6-12.4,9.9-17.6,16c-5.9,6.9-11,14.5-15.2,22.7c2-0.5,3.9-1,5.9-1.4c4.6-1.1,9.3-2.1,14-2.9
			c9.7-3.4,19.3-6.4,29.2-8.7c10.9-2.5,22.1-4.6,33.3-3.9c-9.9,1.2-19.3,4.6-28.4,8.4c10.5,0.1,21,1.7,30.9,5.2
			c3.4,1.2,6.9,2.9,10.1,4.5c1.3,0.8,4.2,2.6,5.6,3.5c-1.5-0.6-4.6-1.9-6-2.4c-2-0.6-4.2-1.3-6.2-1.8c-11.4-2.6-23.2-2.5-34.7-0.5
			c12.3,2.1,24.2,6,35,12.3c-6.7-2.6-13.6-4.7-20.6-5.8c-10.5-1.6-21.1-1.8-31.6-0.9c15.4,2.1,30.7,5.7,45.2,11.1
			c3.4,1.2,8.4,3.4,11.8,4.9c-2.1-0.6-7.1-2.1-9.2-2.7c-21.2-5.3-43.3-7.2-65.2-6c16,3,31.3,9.1,44.4,18.7c-7-3.8-14.4-6.9-22-8.9
			c-19.3-5.2-40-5.3-59.4-0.6c23.6,3.3,47,9.3,67.8,20.8c-15.8-6.5-32.6-9.8-49.5-11.4c-14.8-1.3-29.8-1.5-44.7-0.5
			c18.7,1.4,37.1,5.6,54.5,12.4c8.4,3.2,17.2,7.7,25.1,12.1c-8.2-3.5-17.4-7-26-9.2c-1.1-0.3-3.8-1.1-5-1.3c-1-0.2-7.2-1.5-8.4-1.8
			c-11.8-2.2-23.9-3.3-36-3.3c6.5,1.1,12.8,2.6,19.1,4.3c13.5,3.6,26.8,8.8,39.4,14.8c-11.2-3.6-22.9-6.8-34.6-8.7
			c-11.6-2-23.5-3-35.1-2.9c-3.1,0-6.3,0.1-9.5,0.3c0.2,0.3,0.3,0.5,0.5,0.8c25.9,2.7,51.8,8.7,74.7,21.2
			c-16.5-6.8-34.1-10.2-51.8-11.7c-16.5-1.3-33.2-1.1-49.6,0.7c4.1,0.7,8.2,1.4,12.3,2.3c26.9,5.6,53.7,13.8,77.4,27.9
			c-8.3-3.7-16.8-6.9-25.6-9.3c-25.2-7-51.5-10.3-77.7-10.8c-1.5,1.3-3,2.6-4.5,4c16.4,2.7,32.4,7.3,47.8,13.4
			c11.8,4.8,23.3,10.8,34,17.6c-8.6-4.1-17.3-7.8-26.3-10.7c-21.4-6.6-44-10.3-66.4-10.1c-0.2,0.2-0.4,0.4-0.6,0.6
			c2.4,0.3,4.8,0.6,7.2,1c20.7,3.2,40.9,9.2,60.1,17.5c-6.7-1.7-13.4-3.3-20.2-4.5c-16.2-2.9-32.8-4.4-49.2-3.7
			c30.7,4.9,61.7,12.6,88.7,28.3c-16.9-7.6-34.9-11.9-53-14.7c-17.4-2.5-35.1-3.9-52.6-3.8c-1,1.1-1.9,2.2-2.8,3.2
			c4.3,0.2,8.6,0.5,12.8,0.8c16,1.2,31.9,2.8,47.6,6.1c7.8,1.7,15.7,3.7,22.6,7.7c-3.7-1.6-7.5-2.5-11.4-3.2
			c-11.7-2-23.5-2.2-35.3-2.2c-15.3,0.1-30.8,1-46,2.4c-0.5,0.6-1,1.3-1.5,1.9c5,0,10.1,0.2,15.2,0.4c29.8,1.4,60.2,4.8,87.8,16.5
			c-9.5-3-19.2-4.9-28.9-6.2c-27.5-3.2-55.5-2.3-83,1c-1.6,2.2-3.2,4.4-4.8,6.6c3.9-0.4,7.9-0.8,11.9-1.1c25-1.8,50.8-1.4,74.9,5.9
			c-8.2-1.4-16.5-2.1-24.7-2.1c-21.6,0.1-43.2,3.3-64.1,8.8c3.2-0.4,6.5-0.7,9.8-1c29.7-2.3,61-2.7,88.9,8.6
			c-9.5-2.9-19.3-4.3-29.2-4.7c-28.4-1.1-56.9,3.7-84.2,11.1c-1.2,1.9-2.3,3.9-3.5,5.9c15.6-2.8,31.2-4.8,47-5.9
			c19.6-1.1,40-1.4,58.8,4.9c-4.8-1.1-9.7-1.7-14.5-2c-14.6-0.8-29.2,0.8-43.6,3.2c-18,3.1-36.1,7.5-53.5,12.9
			c3.3-0.2,6.5-0.2,9.8-0.3c24.4-0.2,49.1,2.8,72.3,10.5c3.6,1.1,8.8,3.2,12.4,4.6c-3.6-0.9-9.1-2.5-12.8-3.1
			c-10.4-2.2-21.8-3.5-32.4-3.9c-19.3-0.6-38.9,0.9-57.7,5l0-0.1c-0.3,0.5-0.5,1-0.8,1.5c6.2-0.3,12.3-0.4,18.4-0.5
			c27,0,54.5,1.9,80.5,9.4c-8.8-1.5-17.8-2.4-26.7-2.8c-22.9-0.7-46,1-68.7,4.6c2.9-0.2,5.9-0.3,8.9-0.5c27.5-0.9,56-0.4,82.3,8.5
			c-9-2.1-18-3-27.1-3.3c-18.9-0.5-37.9,1.3-56.6,4.3c14.7,1.4,29.4,4,43.8,7.4l-9.1-0.5c-19.9-0.6-40.2-0.2-59.7,3.6
			c-0.1,0.1-0.1,0.3-0.2,0.5c6.6-0.3,13-0.4,19.6-0.5c27.6,0,55.4,2.2,82.3,8.4c-9.1-1-18.2-1.7-27.3-1.9
			c-26.6-0.5-53.5,1.7-79.6,6.2C743,338.4,736.8,356.8,731.4,375.4z"/>
	</g>
	<g>
		
			<linearGradient id="SVGID_00000037662901658465523720000009445185123364366778_" gradientUnits="userSpaceOnUse" x1="-3185.1304" y1="1238.0237" x2="-3428.0879" y2="1334.0765" gradientTransform="matrix(0.9575 0.2884 0.2884 -0.9575 3026.2561 2460.8027)">
			<stop  offset="0" style="stop-color:#B529DE"/>
			<stop  offset="0.1235" style="stop-color:#934CDF"/>
			<stop  offset="0.5215" style="stop-color:#2AB8E1"/>
			<stop  offset="0.6987" style="stop-color:#00E3E2"/>
		</linearGradient>
		<path style="fill:url(#SVGID_00000037662901658465523720000009445185123364366778_);" d="M432.5,388l48.6,105.4
			c0,0-15.9-61.2-39.1-99.7c1.5,1.5,3.1,3,4.6,4.5c-8.5-14.7-18-28.8-28.3-42.3c-0.1-0.1-0.1-0.3-0.2-0.5c0,0-0.1,0.1-0.1,0.1
			c-18.1-23.8-38.6-45.8-60.2-66.5C285.1,220.9,192,167.6,90.5,163.7c-21.1-0.7-42.2,0.9-62.6,5.3c10.4,0.8,20.7,1.6,30.9,2.9
			c2.7,0.3,5.3,0.7,8,1.1c-17.4,5.8-35,12.3-49.9,23.1c5.9-3,12.1-5.1,18.4-6.9c15.1-4.2,30.8-6.7,46.5-8.4
			c-13,5.3-25.8,10.9-37.9,17.9c5.9-2.2,11.9-3.8,17.9-5.4c14.2-3.6,28.6-6.4,43-8.9c-14.8,5.9-29.2,13.2-41.5,23.3
			c5.8-3.3,11.8-5.9,17.9-8.2c15.8-5.5,32.4-8.9,49-10.8c-11.5,3.7-22.8,7.8-33.6,13.1c-6.1,3.1-12.1,6.4-17.4,10.7
			c5.9-3.3,12.3-5.5,18.7-7.4c18.7-5.3,38.4-7.9,57.8-9.4c1.5,0.6,3,1.1,4.5,1.6c-0.3,0.1-0.6,0.2-1,0.3c-22.3,7-45,14.3-65.2,26.4
			c7.1-3.1,14.6-5.3,22-7.3c21.1-5.4,42.8-8.8,64.4-11.2c2.8,1.2,5.5,2.4,8.2,3.6c-1.2,0.4-2.3,0.7-3.5,1
			c-24.2,7.5-48.8,14.4-71.6,25.4c8-2.7,16.1-4.6,24.4-6.3c22.8-4.7,45.9-8.3,69-11.5c1.8,0.9,3.6,1.8,5.4,2.7
			c-10.2,3.4-20.4,6.9-30.6,10.5c-16.1,6-32.7,11.8-47.6,20.4c7.6-3.3,16.4-5.7,24.5-7.8c23.1-5.9,46.7-10.4,70.2-14.5
			c1.7,0.9,3.4,1.9,5.1,2.8c-21.8,7-43.6,14.3-65.1,22.1c-9.2,3.4-18.4,6.8-27.4,10.9c32.8-9.5,66.4-15.9,99.9-22.4
			c-7.8,2.1-15.6,4.3-23.4,6.8c-16.8,5.7-34.2,11.4-48.4,22.3c3.8-2.3,7.8-4.1,11.9-5.7c12.4-4.6,25.3-7.5,38.2-9.8
			c14.9-2.6,30.1-4.6,45.2-5.9c-9.6,6-19.5,11.7-29.5,17c-14.4,7.5-29.1,14.2-44.8,18.6c16.2-2.1,32.1-6.8,47.6-12.1
			c13.2-4.7,26.1-9.9,38.9-15.8c0.6,0.4,1.2,0.8,1.8,1.2c-2.8,2.7-5.7,5.3-8.6,7.9c-9.9,8.4-20.6,16-31.9,22.5
			c-5.5,3.1-11.8,6.3-17.6,8.7l-6.1,2.5l-6.3,2.1c-3.5,1.3-9.1,2.5-12.8,3.5c2.3-0.3,7.7-0.9,9.9-1.2c2-0.4,7.8-1.5,9.9-1.9
			c3.8-1,9.3-2.3,12.9-3.6c22.3-7.2,43.4-18.5,62-32.8c0.4,0.3,0.8,0.5,1.2,0.8c-9,10.2-19.1,19.4-30.1,27.4
			c-14.1,10.2-29.7,18.1-46.7,21.9c22.3-2.1,43.6-10.8,62.7-23.1c-14.8,15.1-32.3,27.8-52.4,34.6c31.9-6.4,60.3-26.1,82.1-49.9
			c0.1,0,0.1,0.1,0.2,0.1c-1.6,2.4-3.4,4.8-5,7c-14.4,18.8-31.9,36.3-53.8,45.9c-3.7,1.5-7.5,2.8-11.5,3.8c4-0.4,8.1-1.1,12.1-2.2
			c26.6-7.4,50.7-26.4,69.3-46.6c0,0,0,0,0,0c-1.4,4.1-3.2,8.1-5.1,12c-6.2,12.3-14.4,23.8-24,33.8l-4.2,4.3l-4.5,4.1
			c-2.5,2.5-6.5,5.6-9.3,7.8c-2.7,2.2-7,5.1-9.9,7.2c1.9-1,6.3-3.3,8.2-4.2c0.7-0.3,2.1-1.1,2.7-1.5c3.1-1.9,7.6-4.4,10.5-6.5
			l5.1-3.5c1.6-1.3,5.8-4.5,7.4-5.7c11.1-9.3,21.4-20,29.4-32.2c-7.2,17.2-18,33-31.2,46.1c-1.4,1.6-5.1,4.8-6.8,6.3
			c-2.7,2.5-6.8,5.4-9.7,7.7c3.2-1.9,7.7-4.2,10.7-6.3c1.8-1.3,6-4,7.7-5.3c2.3-1.8,5.2-3.9,7.4-5.9c8.4-7.2,16-15.2,22.7-24
			c-6.1,16.5-15.8,32-27.5,45.1c-1.4,1.5-4.8,5.4-6.3,6.8c-1.5,1.4-5.1,5-6.7,6.5l5-3.6c17.1-12.4,31.9-28,42.6-46.3
			c-9.5,24.2-24.6,46.3-45.3,62.3c21.1-12.6,38.3-30.9,50.9-52.1c-4.9,11.8-10.8,23.3-17.8,34c-4.5,7.2-9.9,14.2-15.3,20.8l4.7-4.5
			c18.2-17.7,33.5-38.6,44.3-61.7c-2.8,23.4-12.3,45.9-26.1,64.9c-5.5,7.6-11.8,14.7-18.6,21.3c23.6-17.5,42.2-41.8,52.5-69.3
			c-1.4,9-3.8,17.9-6.7,26.6c-5.9,17.7-14.8,35.1-24.4,51.2L339,411c11.3-16.2,21.8-33.5,28.8-52.1c-1.7,9-3.9,18-6.7,26.8
			c-6.1,18.9-15,36.9-27.5,52.5c20.7-20.8,35-47.1,43.7-75.2c-1.3,12.5-3.9,25-7.7,37l-2.4,7.2l-2.8,7.1c-1.5,4.2-4.3,9.9-6.1,14
			c-1.9,4-5,9.6-7.1,13.6c1.5-2.2,5.1-7.4,6.5-9.5c2.5-3.7,5.8-9.4,8.1-13.2c1.1-2.1,4.3-8.1,5.4-10.3c1.1-2.4,3.8-8.4,4.9-10.6
			c1.4-3.5,3-7.4,4.2-11c1.8-5.4,3.5-10.8,5-16.3c-0.3,26.3-6.2,53.2-22.1,74.6c18.2-19.5,27.9-45.4,31.6-72c0.6,6,0.7,12,0.3,18.1
			c-0.5,8.8-2.2,17.6-4.3,26.1c-0.8,2.8-2.3,7.7-3.2,10.6c-1.4,4-2.9,7.9-4.4,11.9c2-3.7,4.1-7.4,6-11.2c1.2-2.7,3.5-7.5,4.7-10.2
			c3.4-8.4,6.4-17.3,8.2-26.2c1.2-6.1,2-12.3,2.3-18.6c5.2,21.2,7.2,43.6,1.2,64.8c-1.2,4-2.8,8-4.6,11.9c2.4-3.6,4.5-7.3,6.2-11.2
			c6.6-15.2,9.2-32.2,9.1-49.3c5.2,23.2,3,48.1-5.1,70.5c9.6-18.2,15-38.8,15.2-59.4c2.3,5.5,4.5,11,6.6,16.5
			c5.9,16.1,10.9,32.7,15,49.4c-1.8-17.2-4.5-34.4-8.2-51.4C437.8,406.5,435.4,397.2,432.5,388z"/>
		
			<linearGradient id="SVGID_00000108302922541902994710000011859011556416972192_" gradientUnits="userSpaceOnUse" x1="-2520.8723" y1="2381.291" x2="-2676.1069" y2="2617.1284" gradientTransform="matrix(0.8559 0.5171 -0.5171 0.8559 3746.8396 -356.4328)">
			<stop  offset="0" style="stop-color:#B529DE"/>
			<stop  offset="0.1235" style="stop-color:#934CDF"/>
			<stop  offset="0.5215" style="stop-color:#2AB8E1"/>
			<stop  offset="0.6987" style="stop-color:#00E3E2"/>
		</linearGradient>
		<path style="fill:url(#SVGID_00000108302922541902994710000011859011556416972192_);" d="M441.3,421.2c0.5,9,1.9,17.8,4,26.6
			c-10.5-29.7-11-61.9-4.4-92.6c-4.3,9.5-8,19.3-10.9,29.3c-4.7,15.5-7.5,31.9-8.1,48.2c-0.4,4.8,0,11.6,0.1,16.5l-1.1-8.2
			c-3.8-31,0.6-63.6,11.1-93.6c-2.1,1.8-4.3,3.5-6.4,5.2c-0.5,0.9-1,1.9-1.5,2.8c-7.8,15-14,30.9-18.2,47.3
			c-4.4,16.4-6.9,33.7-6.9,50.7c-0.2,5,0.5,12.2,0.7,17.2l-1.4-8.5c-4.8-31.1-1.4-64.1,8.1-94.7c-0.3,0.2-0.6,0.5-0.9,0.7
			c-7.6,18.9-14.8,38.1-21.2,57.4c-6.7,20.6-13.1,41.5-16,63c0.4-21.9,4.5-43.6,8.9-65c3-14.2,6.3-28.3,10-42.3
			c-2.5,1.8-5.1,3.5-7.7,5.3c-2.9,7.2-5.7,14.4-8.4,21.6c-7.8,21-15.2,42.4-20.6,64.2c-2.6,10.9-5,22-4.5,33.3
			c-1.7-11.2-0.5-22.8,0.9-34c1.5-11.3,3.5-22.5,5.9-33.6c2.7-12.5,5.6-24.9,8.9-37.2c-0.9,1.7-1.7,3.4-2.5,5.1
			c-8.9,18.3-17.8,36.8-23.8,56.2c2-16,5.8-31.8,10-47.4c-8.2,14.8-15.7,30-22.5,45.4c-9,20.7-16.7,42-20.8,64.3
			c1.7-22.8,7.1-45.1,13.9-66.9c4-12.7,8.5-25.2,13.3-37.5c-5.3,9.5-10.5,19.1-15.5,28.8c-6.5,12.9-13,25.8-17.4,39.6
			c2.1-14.4,6.3-28.5,10.6-42.4c2-6.5,4.1-13,6.3-19.4c-2.5,1.3-5,2.7-7.5,4c-8,16.7-15.6,33.9-22.4,51.1
			c-7.6,20.1-15.4,40.4-17.6,61.9c-0.2-21.8,5.3-43.3,10.6-64.2c3.3-12.5,7-24.8,11-37c-11.3,15.6-21.8,32-31.1,48.8
			c-11.4,20.7-21.5,42.5-26.3,65.7c2.1-20.8,8.5-41.3,16.2-60.6c6.6-16.4,14.1-32.3,22.4-47.8c-0.2,0.1-0.4,0.2-0.6,0.2
			c-8.7,8.5-17.2,17.6-24.9,27c-4.6,5.6-9,11.5-12.8,17.7c-3.7,6.2-7.4,12.8-7.9,20.2c-0.6-7.3,2.1-16.6,6.4-26.3
			c-4.5,7.3-8.8,14.8-12.9,22.3c-10.1,18.9-19.7,38.4-23.8,59.6c1.6-21.7,9.1-42.6,17.1-62.8c5.8-14.2,12.1-28,19-41.5
			c-0.8,0.3-1.6,0.6-2.4,0.9c-5.9,8.9-11.6,17.8-17.2,26.8c-7.5,12.6-15.6,25.1-20.6,39c2.7-14.7,8.7-28.5,14.1-42.3
			c2.4-6,4.9-11.9,7.5-17.8c-0.4,0.1-0.9,0.3-1.4,0.4c-13.1,18.6-25,38.4-35.5,58.6c-10.9,21.5-20.4,43.9-25,67.8
			c2.2-24.3,9.5-48,18.2-70.8c5.2-13.1,10.9-26,17.1-38.6c-7.4,8.1-14.4,16.7-20.6,25.7c-10,14.6-18.6,30.6-21.6,48.2
			c1.1-25.3,13.1-51.2,27.8-73.8c-2,2-4.1,3.9-6.1,5.9c-13.1,13.2-25.4,27.2-35.2,43.1c7-18.2,16.6-35.2,27.6-51.4
			c-1.1,0.2-2.2,0.5-3.3,0.7c-10.4,11.7-20.3,24.1-29.3,36.9c-10.8,15.7-20.9,32.4-26.1,50.9c1.3-9.6,4.2-19,7.7-28.1
			c7.7-19.7,17.8-38.3,29.3-56.1c-5.4,1-10.8,1.8-16.2,2.6c-2.5,2.5-4.9,5.1-7.2,7.7c-12.4,14.1-24,29.5-29.8,47.6
			c1.4-12.8,6.1-25.2,11.6-36.9c2-4,4-8,6.2-11.9c-5.9,5.5-12,10.8-18.4,15.8c-10.6,8.1-21.9,15.7-34.4,20.3
			c11.3-6.7,20.7-15.9,29.4-25.7c3.8-4.4,7.5-8.9,11-13.5c-7.6,0.5-15.1,0.9-22.3,0.9c-5.5,0-10.9,0-16.3-0.2
			c15.4-5,30.5-9.7,45.5-14.7c-21.8-2-43.6-5.7-64.3-13c9.4,2,18.8,3.2,28.3,4c21.8,1.5,43.9,0.8,65.7-1.4c0.3-0.1,0.7-0.2,1.1-0.4
			c2.6-0.9,5.2-1.9,7.8-2.8c-21.8-4.2-43.4-11-61.7-23.8c7.4,3.7,15.2,6.5,23.1,8.6c21.2,5.2,43.3,6.6,65,5.2c2.6-1,5.2-2,7.8-3.1
			c-21.9-2.2-48.1-6.9-63.2-20.6c7.1,5,15.5,7.4,23.9,9.1c20.1,3.4,40.8,2.8,61.1,0.5c-21.4-3.7-47.3-9.8-60.3-21.6
			c7.4,5.2,16.3,7.4,25,9.2c19.6,3.5,39.6,4.4,59.6,4.1c0.6-0.2,1.1-0.5,1.7-0.7c-15.8-1.5-31.4-5.5-45.8-12
			c-9.3-3.9-18-9.5-26.3-15.1c4.1,1.9,9.4,4.9,13.6,6.5c26.1,11.1,56,14.4,83.7,8c-19.6-3.2-38.8-9.1-56.5-18
			c-2.2-1.2-7.7-4.3-9.8-5.5c-2.1-1.4-7.2-4.7-9.3-6.1c2.3,1.1,7.7,3.8,10,4.9c2.2,0.9,8,3.2,10.2,4.2c2.3,0.8,8.2,2.7,10.5,3.4
			c5.5,1.5,12.2,3.1,17.8,4.1c15.3,2.7,31.1,3.8,46.8,2.9c-17.7-5.2-35.3-10.7-52.5-17.4c-8.6-3.4-17.3-7-25.1-12
			c8.4,3.8,17.3,6.2,26.3,8.4c23.7,5.6,47.8,9.5,72,12.8c0.1,0,0.2-0.1,0.2-0.1c-3.6-1.1-7.1-2.2-10.7-3.4
			c-35.6-12-71.2-26.5-101.4-49.1c10.7,6.5,21.9,12,33.3,16.8c31,12.5,63.7,21,96.6,26.8c1.3-0.7,2.7-1.4,4-2.1
			c-39.9-7.2-84.5-33.7-111.2-51.5c30.7,16.9,91.5,45.6,132.3,40.4c0.6-0.3,1.2-0.7,1.9-1c-1.4-0.3-2.7-0.6-4.1-0.9
			c-28.2-6.4-55.8-15.9-81.8-28.5c-2.6-1.3-9.1-4.7-11.5-6c-2.5-1.4-8.6-5-11.2-6.4c4.6,2,11.1,5,15.8,6.8
			c10.2,4.1,21.8,7.9,32.4,10.9c23.7,6.5,48.2,11,72.7,12.8c-41.4-7.9-87.9-30.1-119.3-46.7c25.2,10.8,51.1,20,77.5,27
			c19.5,5,39.5,9.2,59.6,9.2c3.6,0,7.2-0.2,10.8-0.5c1.6-0.9,3.1-1.8,4.7-2.6c-39.4-6.6-85.9-27-113.5-40.1
			c24.6,9.2,49.9,17,75.5,22.8c18.6,4.1,37.9,7.4,57,6.5c2.2-1.2,4.4-2.5,6.5-3.8c-38.2-7-86.1-27.5-112.7-39.1
			c35.4,11.7,71.8,22.3,108.8,27c5,0.5,10.2,1,15.5,1.2c-28.7-6.3-59.6-20.9-83.4-33.1c29.1,10.9,59.5,20.7,90.5,23.4
			c5.6,0.4,11.8,0.5,17.5-0.4c1-0.6,1.9-1.1,2.9-1.7c-25.6-4.1-49.5-18.7-67.9-36.7c25.6,18.6,59.5,31.9,90.9,23
			c16-9.7,32-19.4,48-29.2c-10.2,12.4-21.1,24.2-32.5,35.4c0.1,0.1,0.1,0.1,0.1,0.1c-3.1,4.7-5.9,9.8-8.5,14.9
			C448.1,356.4,439.5,388.8,441.3,421.2z"/>
		
			<linearGradient id="SVGID_00000067926150630141172540000001113777800221025160_" gradientUnits="userSpaceOnUse" x1="-2836.1331" y1="-55.0983" x2="-3254.6431" y2="-48.4289" gradientTransform="matrix(0.7469 0.665 0.665 -0.7469 2607.4209 2135.8306)">
			<stop  offset="0" style="stop-color:#B529DE"/>
			<stop  offset="0.1235" style="stop-color:#934CDF"/>
			<stop  offset="0.5215" style="stop-color:#2AB8E1"/>
			<stop  offset="0.6987" style="stop-color:#00E3E2"/>
		</linearGradient>
		<path style="fill:url(#SVGID_00000067926150630141172540000001113777800221025160_);" d="M459.3,375.4c-1.1-11-2.7-22-4.9-32.9
			c21.6-15.2,33.9-42,41.7-66.3c-5.6,11.5-12.5,22.5-20.4,32.4c-6.8,8.4-14.7,16.4-24,21.6c-0.5-2-1-4-1.5-6
			c12.6-19.9,20.9-43.3,20.7-67c-1.8,11.4-5.9,22.3-11.1,32.5c-3.8,7.3-8.3,14.1-13.4,20.4c-1-3.3-2-6.6-3.1-9.9
			c11.8-21.9,17.5-46.4,21-70.8c-3.6,11.8-8.1,23.3-13.2,34.5c-3.7,7.8-7.8,15.5-12.6,22.6c0,0,0,0,0,0c10-26.7,12.5-55.6,11.2-83.9
			c-1.2,14.2-3.8,28.3-7.5,42c-1,3.6-2.1,7.2-3.2,10.8c5-21,6.2-42.8,5.2-64.3c-1.2,14.2-3.8,28.3-7.5,42
			c-2.4,9.1-5.5,18.1-9.4,26.7c-0.9-2-1.8-3.9-2.8-5.8c0.6-1.4,1.3-2.7,1.6-3.5c10.4-25.1,13.5-52.9,11.1-79.8
			c-1.2,24.6-7,49.5-18.9,71.1c-2.2-4.1-4.4-8.2-6.8-12.3c0.9-1.6,1.7-3.2,2.3-4.6c10.7-22.6,14.5-48.4,12.2-73.2
			c-1.1,22.3-7.4,44.4-18.7,63.7c-0.5,0.7-1.3,2.1-2.2,3.3c-1.2-1.9-2.3-3.7-3.5-5.6c2.1-4.5,4-9.1,5.3-13.9
			c5.9-19.6,6.4-41,1.7-60.9c1.4,16.5-1,33.2-6.5,48.8c-2,5.4-4.5,10.7-7.4,15.8c0-0.1-0.1-0.1-0.2-0.2c1.4-3.2,2.6-6.6,3.5-9.9
			c5.9-19.6,6.4-41,1.7-60.9c1.4,16.5-1,33.2-6.5,48.8c-1.6,4.3-3.5,8.5-5.6,12.6c-1.3-1.7-2.6-3.4-3.9-5.1
			c6.2-17,7.8-35.4,7.3-53.4c-1.6,9.7-4.1,19.3-7.4,28.5c-1,2.7-2,5.3-3.2,7.9c4.5-18.2,4.6-37.6,0.3-55.7c1.4,16.5-1,33.2-6.5,48.8
			c-1,2.8-2.2,5.5-3.4,8.2c-0.1-0.2-0.3-0.4-0.5-0.5c4.8-21.4,5.8-43.4,4.3-65.2c-1.1,11.8-3.2,23.4-6.1,34.8
			c-1.8,7.2-3.9,14.4-6.5,21.4c-2.5-2.7-5.2-5.3-7.8-7.9c7.2-28.7,5.9-58.9,0.4-87.7c1.1,15.5,0.5,31-1.5,46.4
			c-1.5,11.2-4,22.4-7.8,33c-0.8-0.7-1.6-1.5-2.4-2.2c5-15.2,4.4-31.8,1-47.4c0.1,8.9-0.6,17.7-2.7,26.3c-0.9,3.2-1.9,6.5-3.1,9.6
			c0.2-1,0.3-2.1,0.4-3.1c2.1-24.5-6.6-48.5-17.8-69.8c4.6,12.6,7.7,25.8,9,39.1c0.9,10.2,0.7,20.6-2.1,30.3c0-0.6,0.1-1.2,0.1-1.8
			c0.2-18.9-8.1-36.5-19.1-51.3c3.7,8,6.8,16.4,8.5,25.1c0.8,4.5,1.3,9.1,1.3,13.7c-1.9-20.5-15.2-39.5-30.3-53
			c12.4,15.6,22.8,35.6,20.2,56c-3.3-2.1-6.6-4.2-9.9-6.2c0.7-17-5.5-34-17.3-46.9c7.4,11.4,11,25.1,10,38.4
			c-5-20.8-20.9-36.8-37.9-48.6c8.2,7.9,15.3,17.1,20.6,27.2c3.2,6.3,5.7,13,6.5,19.9c-0.4-1.2-0.8-2.4-1.3-3.7
			c-7-17.5-21.5-30.6-37.3-40.1c6.5,6,12.6,12.5,17.4,19.9c3.5,5.5,6.6,11.5,8.5,17.8c-1.9-0.9-3.9-1.7-5.8-2.5
			c-0.5-1.6-1-3.2-1.6-4.8c-7-17.5-21.5-30.6-37.3-40.1c6.5,6,12.6,12.5,17.4,19.9c3.9,6.2,7.3,13,9,20.1c-4-1.5-8-2.8-12.1-4.1
			c-2.1-3.5-4.4-6.5-6.8-9.7c-11-13.9-24.8-25.9-41.1-33.2c6.5,4.6,12.4,9.9,17.6,16c5.9,6.9,11,14.5,15.2,22.7
			c-2-0.5-3.9-1-5.9-1.4c-4.6-1.1-9.3-2.1-14-2.9c-9.7-3.4-19.3-6.4-29.2-8.7c-10.9-2.5-22.1-4.6-33.3-3.9
			c9.9,1.2,19.3,4.6,28.4,8.4c-10.5,0.1-21,1.7-30.9,5.2c-3.4,1.2-6.9,2.9-10.1,4.5c-1.3,0.8-4.2,2.6-5.6,3.5c1.5-0.6,4.6-1.9,6-2.4
			c2-0.6,4.2-1.3,6.2-1.8c11.4-2.6,23.2-2.5,34.7-0.5c-12.3,2.1-24.2,6-34.9,12.3c6.7-2.6,13.6-4.7,20.6-5.8
			c10.5-1.6,21.1-1.8,31.6-0.9c-15.4,2.1-30.7,5.7-45.2,11.1c-3.4,1.2-8.4,3.4-11.8,4.9c2.1-0.6,7.1-2.1,9.2-2.7
			c21.2-5.3,43.3-7.2,65.1-6c-15.9,3-31.3,9.1-44.4,18.7c7-3.8,14.4-6.9,22-8.9c19.3-5.2,40-5.3,59.4-0.6
			c-23.6,3.3-46.9,9.3-67.8,20.8c15.8-6.5,32.6-9.8,49.6-11.4c14.8-1.3,29.9-1.5,44.7-0.5c-18.6,1.4-37.1,5.6-54.5,12.4
			c-8.4,3.2-17.2,7.7-25.1,12.1c8.2-3.5,17.4-7,26-9.2c1.1-0.3,3.9-1.1,5-1.3c1.1-0.2,7.2-1.5,8.4-1.8c11.8-2.2,23.9-3.3,36-3.3
			c-6.5,1.1-12.8,2.6-19.1,4.3c-13.5,3.6-26.8,8.8-39.4,14.8c11.2-3.6,22.9-6.8,34.6-8.7c11.6-2,23.5-3,35.1-2.9
			c3.1,0,6.3,0.1,9.5,0.3c-0.2,0.3-0.3,0.5-0.5,0.8c-25.9,2.7-51.8,8.7-74.7,21.2c16.5-6.8,34.1-10.2,51.8-11.7
			c16.5-1.3,33.2-1.1,49.6,0.7c-4.1,0.7-8.2,1.4-12.3,2.3c-26.9,5.6-53.7,13.8-77.4,27.9c8.3-3.7,16.9-6.9,25.6-9.3
			c25.2-7,51.6-10.3,77.7-10.8c1.5,1.3,3,2.6,4.5,4c-16.4,2.7-32.4,7.3-47.8,13.4c-11.8,4.8-23.3,10.8-33.9,17.6
			c8.6-4.1,17.3-7.8,26.3-10.7c21.4-6.6,44-10.3,66.4-10.1c0.2,0.2,0.4,0.4,0.6,0.6c-2.4,0.3-4.8,0.6-7.2,1
			c-20.7,3.2-40.9,9.2-60.1,17.5c6.7-1.7,13.4-3.3,20.2-4.5c16.2-2.9,32.8-4.4,49.2-3.7c-30.7,4.9-61.7,12.6-88.7,28.3
			c16.9-7.6,34.9-11.9,53-14.7c17.4-2.5,35.1-3.9,52.6-3.8c1,1.1,1.9,2.2,2.8,3.2c-4.3,0.2-8.6,0.5-12.9,0.8
			c-16,1.2-31.9,2.8-47.6,6.1c-7.8,1.7-15.7,3.7-22.6,7.7c3.6-1.6,7.5-2.5,11.4-3.2c11.6-2,23.5-2.2,35.3-2.2
			c15.3,0.1,30.8,1,46,2.4c0.5,0.6,1,1.3,1.5,1.9c-5,0-10.1,0.2-15.2,0.4c-29.8,1.4-60.2,4.8-87.8,16.5c9.5-3,19.1-4.9,28.9-6.2
			c27.5-3.2,55.5-2.3,83,1c1.6,2.2,3.2,4.4,4.8,6.6c-3.9-0.4-7.9-0.8-11.9-1.1c-25-1.8-50.7-1.4-74.9,5.9c8.2-1.4,16.5-2.1,24.7-2.1
			c21.6,0.1,43.2,3.3,64.1,8.8c-3.2-0.4-6.5-0.7-9.8-1c-29.7-2.3-61-2.7-88.9,8.6c9.5-2.9,19.3-4.3,29.1-4.7
			c28.4-1.1,56.9,3.7,84.2,11.1c1.2,1.9,2.4,3.9,3.5,5.9c-15.6-2.8-31.2-4.8-47-5.9c-19.6-1.1-40-1.4-58.8,4.9
			c4.8-1.1,9.6-1.7,14.5-2c14.6-0.8,29.2,0.8,43.6,3.2c18,3.1,36.1,7.5,53.5,12.9c-3.3-0.2-6.5-0.2-9.8-0.3
			c-24.4-0.2-49.1,2.8-72.3,10.5c-3.6,1.1-8.8,3.2-12.4,4.6c3.6-0.9,9.1-2.5,12.8-3.1c10.4-2.2,21.8-3.5,32.4-3.9
			c19.3-0.6,38.9,0.9,57.7,5l0-0.1c0.3,0.5,0.5,1,0.8,1.5c-6.2-0.3-12.3-0.4-18.4-0.5c-27,0-54.5,1.9-80.5,9.4
			c8.9-1.5,17.8-2.4,26.7-2.8c22.9-0.7,46,1,68.7,4.6c-2.9-0.2-5.9-0.3-8.9-0.5c-27.5-0.9-56-0.4-82.3,8.5c9-2.1,18-3,27.1-3.3
			c18.9-0.5,37.9,1.3,56.6,4.3c-14.7,1.4-29.4,4-43.8,7.4l9.1-0.5c19.9-0.6,40.1-0.2,59.7,3.6c0.1,0.1,0.1,0.3,0.2,0.5
			c-6.6-0.3-13-0.4-19.6-0.5c-27.6,0-55.4,2.2-82.3,8.4c9.1-1,18.2-1.7,27.3-1.9c26.6-0.5,53.5,1.7,79.6,6.2
			C447.7,338.4,454,356.8,459.3,375.4z"/>
	</g>
	
		<radialGradient id="SVGID_00000104692225208973123120000013965726542619457454_" cx="352.4604" cy="1054.8344" r="1384.1425" gradientTransform="matrix(1 0 0 -1 0 1200)" gradientUnits="userSpaceOnUse">
		<stop  offset="0.2084" style="stop-color:#5A23E6"/>
		<stop  offset="0.2847" style="stop-color:#4A1DBD"/>
		<stop  offset="0.4424" style="stop-color:#2B116D"/>
		<stop  offset="0.5723" style="stop-color:#140832"/>
		<stop  offset="0.6677" style="stop-color:#05020E"/>
		<stop  offset="0.7183" style="stop-color:#000000"/>
	</radialGradient>
	<polygon style="fill:url(#SVGID_00000104692225208973123120000013965726542619457454_);" points="123.8,629 603.2,1157.8 
		1082.7,629 603.2,100.3 	"/>
	<g>
		<g>
			<g>
				
					<linearGradient id="SVGID_00000105401140629160349540000012801281277833845947_" gradientUnits="userSpaceOnUse" x1="212.675" y1="466.4873" x2="212.675" y2="589.6735" gradientTransform="matrix(1 0 0 -1 0 1200)">
					<stop  offset="2.373780e-03" style="stop-color:#FFFFFF"/>
					<stop  offset="0.2033" style="stop-color:#FDFDFD"/>
					<stop  offset="0.2779" style="stop-color:#F6F6F6"/>
					<stop  offset="0.3315" style="stop-color:#EAEAEA"/>
					<stop  offset="0.375" style="stop-color:#D9D9D9"/>
					<stop  offset="0.4125" style="stop-color:#C3C3C3"/>
					<stop  offset="0.4451" style="stop-color:#A8A8A8"/>
					<stop  offset="0.4656" style="stop-color:#939393"/>
					<stop  offset="0.6" style="stop-color:#969696"/>
					<stop  offset="0.6984" style="stop-color:#9F9F9F"/>
					<stop  offset="0.7854" style="stop-color:#AFAFAF"/>
					<stop  offset="0.8657" style="stop-color:#C6C6C6"/>
					<stop  offset="0.9408" style="stop-color:#E2E2E2"/>
					<stop  offset="1" style="stop-color:#FFFFFF"/>
				</linearGradient>
				<path style="fill:url(#SVGID_00000105401140629160349540000012801281277833845947_);" d="M116.3,770.8V588.5h89.9
					c20.3,0,38.2,3.7,53.7,11.1c15.5,7.4,27.5,17.8,36.2,31.4s13,29.7,13,48.5c0,18.9-4.3,35.2-13,48.8
					c-8.7,13.6-20.8,24.1-36.2,31.5c-15.5,7.4-33.3,11.1-53.7,11.1L116.3,770.8L116.3,770.8z M177.8,722.9h25.8
					c8.7,0,16.3-1.7,22.8-5c6.5-3.3,11.6-8.2,15.2-14.7c3.6-6.5,5.5-14.5,5.5-23.8c0-9.2-1.8-17-5.5-23.4
					c-3.6-6.4-8.7-11.3-15.2-14.6c-6.5-3.3-14.1-5-22.8-5h-25.8L177.8,722.9L177.8,722.9z"/>
				
					<linearGradient id="SVGID_00000098930469893433463540000007387954387852974232_" gradientUnits="userSpaceOnUse" x1="421.56" y1="466.4873" x2="421.56" y2="589.6735" gradientTransform="matrix(1 0 0 -1 0 1200)">
					<stop  offset="2.373780e-03" style="stop-color:#FFFFFF"/>
					<stop  offset="0.2033" style="stop-color:#FDFDFD"/>
					<stop  offset="0.2779" style="stop-color:#F6F6F6"/>
					<stop  offset="0.3315" style="stop-color:#EAEAEA"/>
					<stop  offset="0.375" style="stop-color:#D9D9D9"/>
					<stop  offset="0.4125" style="stop-color:#C3C3C3"/>
					<stop  offset="0.4451" style="stop-color:#A8A8A8"/>
					<stop  offset="0.4656" style="stop-color:#939393"/>
					<stop  offset="0.6" style="stop-color:#969696"/>
					<stop  offset="0.6984" style="stop-color:#9F9F9F"/>
					<stop  offset="0.7854" style="stop-color:#AFAFAF"/>
					<stop  offset="0.8657" style="stop-color:#C6C6C6"/>
					<stop  offset="0.9408" style="stop-color:#E2E2E2"/>
					<stop  offset="1" style="stop-color:#FFFFFF"/>
				</linearGradient>
				<path style="fill:url(#SVGID_00000098930469893433463540000007387954387852974232_);" d="M451.8,588.5h-60.4l-79.7,182.3h62.5
					l12.2-31.8h69.3l12.2,31.8h63.6L451.8,588.5z M403.4,694.8l17.6-45.9l17.6,45.9H403.4z"/>
				
					<linearGradient id="SVGID_00000134960597041792507400000008018151222123364000_" gradientUnits="userSpaceOnUse" x1="631.25" y1="466.4873" x2="631.25" y2="589.6735" gradientTransform="matrix(1 0 0 -1 0 1200)">
					<stop  offset="2.373780e-03" style="stop-color:#FFFFFF"/>
					<stop  offset="0.2033" style="stop-color:#FDFDFD"/>
					<stop  offset="0.2779" style="stop-color:#F6F6F6"/>
					<stop  offset="0.3315" style="stop-color:#EAEAEA"/>
					<stop  offset="0.375" style="stop-color:#D9D9D9"/>
					<stop  offset="0.4125" style="stop-color:#C3C3C3"/>
					<stop  offset="0.4451" style="stop-color:#A8A8A8"/>
					<stop  offset="0.4656" style="stop-color:#939393"/>
					<stop  offset="0.6" style="stop-color:#969696"/>
					<stop  offset="0.6984" style="stop-color:#9F9F9F"/>
					<stop  offset="0.7854" style="stop-color:#AFAFAF"/>
					<stop  offset="0.8657" style="stop-color:#C6C6C6"/>
					<stop  offset="0.9408" style="stop-color:#E2E2E2"/>
					<stop  offset="1" style="stop-color:#FFFFFF"/>
				</linearGradient>
				<polygon style="fill:url(#SVGID_00000134960597041792507400000008018151222123364000_);" points="721.1,588.5 721.1,770.8 
					670.6,770.8 601.3,687.9 601.3,770.8 541.4,770.8 541.4,588.5 591.9,588.5 661.2,671.4 661.2,588.5 				"/>
				
					<linearGradient id="SVGID_00000026120961594581723160000005885796661120789890_" gradientUnits="userSpaceOnUse" x1="835.19" y1="466.4873" x2="835.19" y2="589.6735" gradientTransform="matrix(1 0 0 -1 0 1200)">
					<stop  offset="2.373780e-03" style="stop-color:#FFFFFF"/>
					<stop  offset="0.2033" style="stop-color:#FDFDFD"/>
					<stop  offset="0.2779" style="stop-color:#F6F6F6"/>
					<stop  offset="0.3315" style="stop-color:#EAEAEA"/>
					<stop  offset="0.375" style="stop-color:#D9D9D9"/>
					<stop  offset="0.4125" style="stop-color:#C3C3C3"/>
					<stop  offset="0.4451" style="stop-color:#A8A8A8"/>
					<stop  offset="0.4656" style="stop-color:#939393"/>
					<stop  offset="0.6" style="stop-color:#969696"/>
					<stop  offset="0.6984" style="stop-color:#9F9F9F"/>
					<stop  offset="0.7854" style="stop-color:#AFAFAF"/>
					<stop  offset="0.8657" style="stop-color:#C6C6C6"/>
					<stop  offset="0.9408" style="stop-color:#E2E2E2"/>
					<stop  offset="1" style="stop-color:#FFFFFF"/>
				</linearGradient>
				<path style="fill:url(#SVGID_00000026120961594581723160000005885796661120789890_);" d="M845.1,775c-14.6,0-28.1-2.3-40.5-6.9
					c-12.4-4.6-23.2-11.2-32.3-19.7s-16.2-18.6-21.2-30.2c-5-11.6-7.5-24.5-7.5-38.5c0-14.1,2.5-26.9,7.5-38.5
					c5-11.6,12.1-21.7,21.2-30.2s19.9-15.1,32.3-19.7c12.4-4.6,25.9-6.9,40.5-6.9c17.9,0,33.7,3.1,47.5,9.4
					c13.8,6.2,25.2,15.3,34.2,27.1l-38.8,34.6c-5.4-6.8-11.3-12-17.8-15.8c-6.5-3.7-13.8-5.6-22-5.6c-6.4,0-12.2,1-17.5,3.1
					c-5.2,2.1-9.7,5.1-13.4,9.1c-3.8,4-6.7,8.8-8.7,14.5c-2.1,5.7-3.1,11.9-3.1,18.9s1,13.2,3.1,18.9c2.1,5.7,5,10.5,8.7,14.5
					c3.7,4,8.2,7,13.4,9.1c5.2,2.1,11,3.1,17.5,3.1c8.2,0,15.5-1.9,22-5.6c6.5-3.7,12.5-9,17.8-15.8l38.8,34.6
					c-9,11.6-20.4,20.6-34.2,27C878.8,771.8,863,775,845.1,775z"/>
				
					<linearGradient id="SVGID_00000091711459676865017530000011116623770450445754_" gradientUnits="userSpaceOnUse" x1="1020.375" y1="466.4873" x2="1020.375" y2="589.6735" gradientTransform="matrix(1 0 0 -1 0 1200)">
					<stop  offset="2.373780e-03" style="stop-color:#FFFFFF"/>
					<stop  offset="0.2033" style="stop-color:#FDFDFD"/>
					<stop  offset="0.2779" style="stop-color:#F6F6F6"/>
					<stop  offset="0.3315" style="stop-color:#EAEAEA"/>
					<stop  offset="0.375" style="stop-color:#D9D9D9"/>
					<stop  offset="0.4125" style="stop-color:#C3C3C3"/>
					<stop  offset="0.4451" style="stop-color:#A8A8A8"/>
					<stop  offset="0.4656" style="stop-color:#939393"/>
					<stop  offset="0.6" style="stop-color:#969696"/>
					<stop  offset="0.6984" style="stop-color:#9F9F9F"/>
					<stop  offset="0.7854" style="stop-color:#AFAFAF"/>
					<stop  offset="0.8657" style="stop-color:#C6C6C6"/>
					<stop  offset="0.9408" style="stop-color:#E2E2E2"/>
					<stop  offset="1" style="stop-color:#FFFFFF"/>
				</linearGradient>
				<polygon style="fill:url(#SVGID_00000091711459676865017530000011116623770450445754_);" points="1096.2,724.5 1096.2,770.8 
					944.6,770.8 944.6,588.5 1092.8,588.5 1092.8,634.9 1005,634.9 1005,656.2 1082.1,656.2 1082.1,700.5 1005,700.5 1005,724.5 
									"/>
			</g>
			<g>
				<path class="st12" d="M116.3,770.8V588.5h89.9c20.3,0,38.2,3.7,53.7,11.1c15.5,7.4,27.5,17.8,36.2,31.4s13,29.7,13,48.5
					c0,18.9-4.3,35.2-13,48.8c-8.7,13.6-20.8,24.1-36.2,31.5c-15.5,7.4-33.3,11.1-53.7,11.1L116.3,770.8L116.3,770.8z M177.8,722.9
					h25.8c8.7,0,16.3-1.7,22.8-5c6.5-3.3,11.6-8.2,15.2-14.7c3.6-6.5,5.5-14.5,5.5-23.8c0-9.2-1.8-17-5.5-23.4
					c-3.6-6.4-8.7-11.3-15.2-14.6c-6.5-3.3-14.1-5-22.8-5h-25.8L177.8,722.9L177.8,722.9z"/>
				<path class="st12" d="M451.8,588.5h-60.4l-79.7,182.3h62.5l12.2-31.8h69.3l12.2,31.8h63.6L451.8,588.5z M403.4,694.8l17.6-45.9
					l17.6,45.9H403.4z"/>
				<polygon class="st12" points="721.1,588.5 721.1,770.8 670.6,770.8 601.3,687.9 601.3,770.8 541.4,770.8 541.4,588.5 
					591.9,588.5 661.2,671.4 661.2,588.5 				"/>
				<path class="st12" d="M845.1,775c-14.6,0-28.1-2.3-40.5-6.9c-12.4-4.6-23.2-11.2-32.3-19.7s-16.2-18.6-21.2-30.2
					c-5-11.6-7.5-24.5-7.5-38.5c0-14.1,2.5-26.9,7.5-38.5c5-11.6,12.1-21.7,21.2-30.2s19.9-15.1,32.3-19.7
					c12.4-4.6,25.9-6.9,40.5-6.9c17.9,0,33.7,3.1,47.5,9.4c13.8,6.2,25.2,15.3,34.2,27.1l-38.8,34.6c-5.4-6.8-11.3-12-17.8-15.8
					c-6.5-3.7-13.8-5.6-22-5.6c-6.4,0-12.2,1-17.5,3.1c-5.2,2.1-9.7,5.1-13.4,9.1c-3.8,4-6.7,8.8-8.7,14.5
					c-2.1,5.7-3.1,11.9-3.1,18.9s1,13.2,3.1,18.9c2.1,5.7,5,10.5,8.7,14.5c3.7,4,8.2,7,13.4,9.1c5.2,2.1,11,3.1,17.5,3.1
					c8.2,0,15.5-1.9,22-5.6c6.5-3.7,12.5-9,17.8-15.8l38.8,34.6c-9,11.6-20.4,20.6-34.2,27C878.8,771.8,863,775,845.1,775z"/>
				<polygon class="st12" points="1096.2,724.5 1096.2,770.8 944.6,770.8 944.6,588.5 1092.8,588.5 1092.8,634.9 1005,634.9 
					1005,656.2 1082.1,656.2 1082.1,700.5 1005,700.5 1005,724.5 				"/>
			</g>
		</g>
		<g>
			<g>
				<path class="st13" d="M298.4,529.6c-0.8,1.5-1.2,2.7-1.2,3.9c0,1.1,0.6,1.7,1.9,1.7c0.7,0,2-0.3,3.7-0.9
					c19.3-10.1,38.2-22,56.6-35.8c0.9,0.7,1.4,1.6,1.4,2.6s-0.5,2-1.5,2.9c-1,0.9-2.5,2.3-4.4,4c-1.9,1.8-5.5,4.9-10.9,9.4
					c-5.4,4.5-10.4,8.7-15,12.4c-12.2,9.8-21.1,15.6-26.9,17.3c-1.9,0.5-3.9,0.8-6,0.8c-8,0-11.9-4.2-11.9-12.7
					c0-3.3,1.8-8,5.4-14.2c3.6-6.1,7.3-11.5,11.1-16.2c3.8-4.7,6.3-7.3,7.6-7.8c1.9-1.1,3.9-1.7,6-1.7s4.2,0.4,6.2,1.2
					c0.6,0.3,0.9,0.7,0.9,1.2s-0.5,1.3-1.5,2.3c-1,1-2.5,2.6-4.5,4.8c-2,2.2-5,5.9-9,11.2C302.4,521.5,299.8,526,298.4,529.6z
					 M335.5,468.6c1,0,1.7,0.2,2,0.6c1.4,1.8,2.2,3.2,2.2,4.3c0,1.1-0.3,2-0.9,2.8s-1.4,1.6-2.2,2.6c-0.9,1-2.6,2.3-5.3,4
					c-2.6,1.7-5.2,2.5-7.7,2.5c-1.9-0.3-2.8-1.4-2.8-3.4c0-3.1,1.9-6.1,5.6-9C330.1,470.1,333.2,468.6,335.5,468.6z"/>
				<path class="st13" d="M398.7,473.7l7.9-0.1c10.2,0,17.6,1.5,22.3,4.3c2.3,0.7,3.4,1.6,3.4,2.8c0,0.8-1,1.4-3,1.7
					s-9,1.1-20.9,2.4c-11.9,1.3-20.1,2-24.5,2.2c-2,0.1-6.5,3.5-13.5,10.2c-7.1,6.7-13.8,14.1-20.2,22.1c-6.4,8-9.6,13.7-9.6,16.9
					c0,0.5,0.3,1,0.8,1.3c0.5,0.4,1.2,0.5,1.9,0.5s2-0.3,3.6-0.9c19.6-11.5,38.6-24.2,57.1-37.9c0.9,0.7,1.4,1.6,1.4,2.6
					c0,1-0.5,2-1.5,3c-1,1-2.6,2.4-4.6,4.2c-2,1.9-5.8,5.2-11.2,10.1c-5.5,4.8-10.6,9.2-15.5,13c-13,10.5-22.1,16.6-27.2,18.3
					c-1.9,0.5-4,0.8-6.6,0.8s-4.9-1.3-7-3.9c-2.1-2.6-3.2-6.1-3.2-10.5s2.9-10.8,8.6-19.2c5.7-8.4,13.5-16.9,23.4-25.7
					c0.9-0.7,1.4-1.4,1.4-2s-1.1-0.9-3.2-0.9l-9.8,0.3c-13.7,0-20.8-1.5-21.2-4.6c-3.2-0.6-4.8-1.5-4.8-2.8c0-0.4,0.2-0.6,0.6-0.7
					c0.4,0,0.8-0.1,1.1-0.2c0.3,0,0.8-0.1,1.5-0.2c0.7-0.1,6.4-0.9,17.1-2.5c10.7-1.5,22.8-2.8,36.5-3.9l10.7-14.2
					c0.6-1.2,2.8-1.9,6.5-1.9c3.7,0,5.6,0.8,5.6,2.3c0,0.5-0.4,1.5-1.2,2.8l-3.9,5.4c-0.5,1.6-0.8,2.9-0.9,3.7
					C396.5,473.4,397.2,473.7,398.7,473.7z"/>
				<path class="st13" d="M437.2,440.3c1,0,1.7,0.2,2,0.6c1.4,1.8,2.2,3.1,2.2,4.2c0,2-2,5.2-5.9,9.8c-5.5,6.3-9,9.4-10.7,9.4
					c-0.3,0-0.5-0.1-0.5-0.5s0.2-0.7,0.6-1.2c1.5-2.2,2.6-3.7,3.1-4.6l0.9-1.5c-1.5,0.5-2.8,0.8-3.7,0.8c-1.9-0.3-2.8-1.4-2.8-3.4
					c0-3.1,1.9-6.1,5.6-9C431.8,441.8,434.9,440.3,437.2,440.3z"/>
				<path class="st13" d="M428.5,534c3.6,0,6.9-2.2,9.9-6.6c3-4.4,5.2-8.8,6.4-13.3c1.2-4.5,1.9-8.1,1.9-10.8c0-0.7-0.5-1.1-1.6-1.1
					c-1.1,0-2.4,0.6-3.8,1.7L421,519.5c-1.4,0.8-3.1,1.2-5,1.2s-2.8-0.7-2.8-2c0-0.9,0.1-1.5,0.4-1.9c0.3-0.3,1-0.8,2.2-1.5
					c7.6-5.3,18-13.8,31.3-25.7c1.5-2.1,3-3.1,4.2-3.1c1.2,0,3.3,0.4,6.2,1.2c2.9,0.8,4.3,1.7,4.3,2.7c0,6.2-0.6,11.8-1.7,16.9
					c-1.1,5.1-2.3,8.9-3.5,11.5c-1.2,2.6-1.8,4-1.8,4.3s0.1,0.3,0.3,0.3c0.2,0,0.6-0.2,1.2-0.5c7.7-3.9,17.6-10.3,29.6-19.2l3.7-2.8
					c0.9,0.7,1.4,1.6,1.4,2.6s-0.5,2-1.4,2.8c-0.2,0-2.9,2.2-8,6.5c-5.1,4.3-10.8,9-17,14.2c-6.2,5.1-12.9,9.8-20,14
					s-12.6,6.3-16.6,6.3c-9.7,0-14.5-5.8-14.5-17.5c0-0.9,0.4-1.8,1.2-2.5c0.8-0.8,1.8-1.2,3-1.2c0,0.5,0.3,1.3,0.9,2.4
					c0.6,1.1,1.2,2,1.8,2.7C422.2,533.1,424.9,534,428.5,534z"/>
				<path class="st13" d="M573.7,473.7l7.9-0.1c10.2,0,17.6,1.5,22.3,4.3c2.3,0.7,3.4,1.6,3.4,2.8c0,0.8-1,1.4-3,1.7
					s-9,1.1-20.9,2.4c-11.9,1.3-20.1,2-24.5,2.2c-2,0.1-6.5,3.5-13.5,10.2c-7.1,6.7-13.8,14.1-20.2,22.1c-6.4,8-9.6,13.7-9.6,16.9
					c0,0.5,0.3,1,0.8,1.3c0.5,0.4,1.2,0.5,1.9,0.5s2-0.3,3.6-0.9c19.6-11.5,38.6-24.2,57.1-37.9c0.9,0.7,1.4,1.6,1.4,2.6
					c0,1-0.5,2-1.5,3c-1,1-2.6,2.4-4.6,4.2c-2,1.9-5.8,5.2-11.2,10.1c-5.5,4.8-10.6,9.2-15.5,13c-13,10.5-22.1,16.6-27.2,18.3
					c-1.8,0.5-4,0.8-6.6,0.8c-2.5,0-4.9-1.3-7-3.9c-2.1-2.6-3.2-6.1-3.2-10.5s2.9-10.8,8.6-19.2c5.7-8.4,13.5-16.9,23.4-25.7
					c0.9-0.7,1.4-1.4,1.4-2s-1.1-0.9-3.2-0.9l-9.8,0.3c-13.7,0-20.8-1.5-21.2-4.6c-3.2-0.6-4.8-1.5-4.8-2.8c0-0.4,0.2-0.6,0.6-0.7
					c0.4,0,0.8-0.1,1.1-0.2c0.3,0,0.8-0.1,1.5-0.2c0.7-0.1,6.4-0.9,17.1-2.5c10.7-1.5,22.8-2.8,36.5-3.9l10.7-14.2
					c0.6-1.2,2.8-1.9,6.5-1.9c3.7,0,5.6,0.8,5.6,2.3c0,0.5-0.4,1.5-1.2,2.8l-3.9,5.4c-0.5,1.6-0.8,2.9-0.9,3.7
					C571.6,473.4,572.3,473.7,573.7,473.7z"/>
				<path class="st13" d="M568.3,529.6c-0.8,1.5-1.2,2.7-1.2,3.9c0,1.1,0.6,1.7,1.9,1.7c0.7,0,2-0.3,3.7-0.9
					c19.3-10.1,38.2-22,56.7-35.8c0.9,0.7,1.4,1.6,1.4,2.6s-0.5,2-1.5,2.9c-1,0.9-2.5,2.3-4.4,4c-1.9,1.8-5.5,4.9-10.9,9.4
					c-5.4,4.5-10.4,8.7-15,12.4c-12.2,9.8-21.2,15.6-26.9,17.3c-1.9,0.5-3.9,0.8-6,0.8c-8,0-11.9-4.2-11.9-12.7
					c0-3.3,1.8-8,5.4-14.2c3.6-6.1,7.3-11.5,11.2-16.2c3.8-4.7,6.3-7.3,7.6-7.8c1.9-1.1,3.9-1.7,6-1.7s4.2,0.4,6.2,1.2
					c0.6,0.3,0.9,0.7,0.9,1.2s-0.5,1.3-1.5,2.3c-1,1-2.5,2.6-4.5,4.8c-2,2.2-5,5.9-9,11.2C572.3,521.5,569.7,526,568.3,529.6z
					 M605.5,468.6c1,0,1.7,0.2,2,0.6c1.4,1.8,2.2,3.2,2.2,4.3c0,1.1-0.3,2-0.9,2.8s-1.4,1.6-2.2,2.6c-0.9,1-2.6,2.3-5.3,4
					c-2.6,1.7-5.2,2.5-7.7,2.5c-1.8-0.3-2.8-1.4-2.8-3.4c0-3.1,1.9-6.1,5.6-9C600,470.1,603.1,468.6,605.5,468.6z"/>
				<path class="st13" d="M666.3,535.7c0,0.9,0.6,1.4,1.8,1.4c1.2,0,3.3-0.7,6.5-2.2c3.1-1.4,6.9-3.7,11.3-6.7
					c4.4-3,10.2-7.2,17.5-12.8c7.3-5.5,13.7-10.2,19.1-14c0.9,0.7,1.4,1.6,1.4,2.6s-0.5,2-1.4,2.8c-3.3,3.2-7.5,7.2-12.5,12
					s-12.8,11.2-23.1,19.3c-10.4,8-17.6,12.1-21.7,12.1c-8,0-11.9-4.2-11.9-12.7c0-3.2,1.2-6.5,3.7-10.1l6.7-9.1
					c0.6-0.9,0.9-1.5,0.9-1.6c0-0.2-0.3,0-0.9,0.5c-18,15-29.4,23.7-34.4,26.3c-0.8,0.5-1.9,0.8-3.1,0.8c-3.4,0-5.1-1.5-5.1-4.6
					c0-1,0.3-2,0.8-2.8c6-8.7,10.6-14.5,13.8-17.5l2.6-2.6c0.2-0.2,0.3-0.4,0.3-0.6c0-0.2-0.1-0.3-0.3-0.3c-0.2,0-0.5,0.2-0.9,0.6
					l-16.6,13c-9.6,7.5-14.8,11.5-15.7,12c-0.9,0.5-1.7,0.7-2.4,0.7s-1.8-0.4-3.4-1.3c-1.5-0.9-2.3-1.9-2.3-3c0-0.3,0.2-0.7,0.5-1.2
					c10.1-11.1,17.5-20.3,22.1-27.5c2-3.1,3.7-5.9,5.2-8.3s2.7-4.1,3.6-5.2c0.9-1,1.8-1.5,2.9-1.5c1,0,2.2,0.6,3.5,1.8
					c1.3,1.2,1.9,2.4,1.9,3.6c0,1.2-0.4,2.5-1.2,3.9c-3.5,6.3-6.2,10.4-8.2,12.2c-0.3,0.3-0.5,0.6-0.5,0.8s0.1,0.4,0.3,0.4l0.5-0.2
					l20.7-14.4c5.3-3.6,8.4-5.4,9.5-5.4c1,0,2.1,0.3,3.3,1c1.2,0.7,1.8,1.4,1.8,2.2s-0.3,1.6-0.8,2.5l-10.1,13.8
					c-1.3,1.7-2,2.6-2,2.8s0,0.3,0.2,0.3l0.8-0.5c12.9-8.8,21.7-14.9,26.2-18.3s7.3-5.6,8.3-6.5c1.4-1,2.7-1.5,3.6-1.5
					s1.6,0.1,1.9,0.3l3.4,2.6c1,0.5,1.6,1.2,1.6,2c0,0.8-0.2,1.5-0.6,2c-6.1,6.6-11,11.9-14.6,15.8c-3.7,3.9-6.3,6.8-8,8.7
					c-2.7,3.2-4.3,5.8-4.9,7.7C666.7,533.2,666.3,534.5,666.3,535.7z"/>
				<path class="st13" d="M712.1,548c-8,0-11.9-4.8-11.9-14.5c0-6.1,2.7-12.6,8-19.4c5.3-6.9,11.6-12.5,18.8-16.9
					c7.2-4.4,13.6-6.6,19.2-6.6c2.5,0,4.8,1,6.9,2.9s3.2,3.9,3.2,5.7c0,3.4-2.4,7.2-7.3,11.5c-4.8,4.3-9.9,7.7-15.2,10.4
					c-5.3,2.6-8.8,4-10.5,4s-3-0.8-3.8-2.3c-0.4-0.3-1-0.5-1.7-0.5c-0.7,0-1.9,1.4-3.6,4.1s-2.5,5-2.5,6.7c0,1.7,0.6,2.8,1.9,3.2
					c7.8,0,16.3-2.3,25.5-6.9c9.2-4.6,21.9-12.7,38.1-24.2c1.1-0.8,2.9-2.1,5.2-3.7s3.7-2.6,4.1-2.9c0.9,0.7,1.4,1.6,1.4,2.6
					s-0.5,2-1.4,2.8c-5.2,5.2-11.8,10.9-20,17.3c-8.2,6.4-17.6,12.5-28.2,18.2S718.8,548,712.1,548z M745.1,498.5
					c-2.7,0-7.2,2.8-13.6,8.3s-9.6,8.9-9.6,10.1c0,0.2,0.2,0.3,0.5,0.3c2.3,0,6.8-2.5,13.5-7.6c6.8-5.1,10.2-8.5,10.2-10.4
					C746,498.8,745.7,498.5,745.1,498.5z"/>
				<path class="st13" d="M863.2,473.7l7.9-0.1c10.2,0,17.6,1.5,22.3,4.3c2.3,0.7,3.4,1.6,3.4,2.8c0,0.8-1,1.4-3,1.7
					s-9,1.1-20.9,2.4c-11.9,1.3-20.1,2-24.5,2.2c-2,0.1-6.5,3.5-13.5,10.2s-13.8,14.1-20.2,22.1c-6.4,8-9.6,13.7-9.6,16.9
					c0,0.5,0.3,1,0.8,1.3c0.5,0.4,1.2,0.5,1.9,0.5s2-0.3,3.6-0.9c19.6-11.5,38.6-24.2,57.1-37.9c0.9,0.7,1.4,1.6,1.4,2.6
					c0,1-0.5,2-1.5,3c-1,1-2.5,2.4-4.6,4.2c-2,1.9-5.8,5.2-11.2,10.1c-5.5,4.8-10.6,9.2-15.5,13c-13,10.5-22.1,16.6-27.2,18.3
					c-1.8,0.5-4,0.8-6.6,0.8c-2.5,0-4.8-1.3-7-3.9c-2.1-2.6-3.2-6.1-3.2-10.5s2.9-10.8,8.6-19.2c5.7-8.4,13.5-16.9,23.4-25.7
					c0.9-0.7,1.4-1.4,1.4-2s-1.1-0.9-3.2-0.9l-9.8,0.3c-13.7,0-20.8-1.5-21.2-4.6c-3.2-0.6-4.8-1.5-4.8-2.8c0-0.4,0.2-0.6,0.6-0.7
					c0.4,0,0.8-0.1,1.1-0.2c0.3,0,0.8-0.1,1.5-0.2c0.7-0.1,6.4-0.9,17.1-2.5c10.7-1.5,22.8-2.8,36.5-3.9l10.7-14.2
					c0.6-1.2,2.8-1.9,6.5-1.9s5.6,0.8,5.6,2.3c0,0.5-0.4,1.5-1.2,2.8l-3.9,5.4c-0.5,1.6-0.8,2.9-0.9,3.7
					C861,473.4,861.7,473.7,863.2,473.7z"/>
				<path class="st13" d="M883.1,520.5c2.9,0,7.4-1.8,13.5-5.3c6.1-3.5,11.5-7,16.2-10.5l7-5.4c0.9,0.7,1.4,1.6,1.4,2.6
					c0,1-0.5,2-1.4,2.8c-17,15.8-29.9,23.7-38.7,23.7c-0.6,0-1.5-0.1-2.8-0.3c-11.7,13.5-21.7,20.3-30,20.3
					c-5.6-0.8-9.1-2.8-10.5-5.9c-0.8-1.5-1.2-3.5-1.2-5.9c0-6.8,3.9-14.9,11.8-24.4c7.8-9.4,17.7-16.4,29.5-20.8
					c1,0,1.8,0.2,2.3,0.7c0.5,0.5,1,0.7,1.4,0.8c0.4,0,1-0.1,1.6-0.6s1.6-0.7,2.7-0.8c1.1,0,2.3,0.6,3.6,1.9c1.7,1.3,2.5,3,2.5,5
					C891.9,504.1,889,511.5,883.1,520.5z M849.4,538.4c3.3,0,7.4-2.2,12.2-6.5c4.8-4.3,7.4-7.3,7.6-9c-1.2-1-2.6-2.9-4-5.7
					c-1.4-2.7-2.1-4.1-2.2-4.1c-3.2,3-6,6.5-8.5,10.4c-3.9,6.6-5.9,11.2-5.9,13.6C848.6,538,848.8,538.4,849.4,538.4z M882.8,500.5
					c-1,0-3.2,1.6-6.4,4.8s-4.9,5.4-4.9,6.7c0,0.3,0.3,0.9,0.9,1.9c0.6,0.9,1.1,1.4,1.4,1.4c1.8,0,3.8-2.1,6-6.4
					c2.2-4.2,3.3-6.7,3.3-7.4C883.1,500.9,883,500.5,882.8,500.5z"/>
			</g>
		</g>
	</g>
</g>
</svg>
