<?xml version="1.0" encoding="utf-8"?>
<!-- Generator: Adobe Illustrator 27.8.0, SVG Export Plug-In . SVG Version: 6.00 Build 0)  -->
<svg version="1.1" id="Layer_1" xmlns="http://www.w3.org/2000/svg" xmlns:xlink="http://www.w3.org/1999/xlink" x="0px" y="0px"
	 viewBox="0 0 1790.7 551.5" style="enable-background:new 0 0 1790.7 551.5;" xml:space="preserve">
<style type="text/css">
	.st0{fill:#FF3C00;}
</style>
<g>
	<path class="st0" d="M287.5,122.2c-9.2-3.7-21.3-12-31.4-18.5c-6.5-4.6-14.8,0.9-12,4.6c1.8,2.8-4.6,7.4-8.3,9.2
		c-22.2,18.5-54.6,63.8-74,94.3c-1.8,1.8-4.6,2.8-7.4-0.9c-3.8-4.4-70.5-99.8-82.6-108.1c-11.1,5.6-22.2,11.1-30.5,14.8
		c12,10.2,9.2,13.9,12,23.1c3.7,9.2,3.7,98.1-2.8,105.4c-5.6,6.5-8.3,15.7-0.9,21.3c4.6,3.7,12,12,13,14.8c0.9,6.5,8.3,4.6,8.3,0
		c-0.9-6.5-1.8-124.9-1.8-131.3c0-3.7,4.6-1.8,10.2,6.5c14.8,17.6,38.8,53.7,65.7,88.8c3.7,5.6,6.5,8.3,10.2,3.7
		c5.6-6.5,8.3-1.8,22.2-9.2c-4.6-3.7-13-13.9-12-16.6c13-25.9,55.5-83.2,75.8-101.8c3.7-3.7,6.5,2.8,6.5,9.2
		c-0.9,7.4-0.9,181.3-0.9,191.6c0,4.6,7.4,4.6,8.3-0.9c0.9-2.8,18.5-12,25-16.7c7.4-4.6,4.6-8.3,0-20.3
		c-3.7-10.2-1.8-139.7-1.8-147.1c0-4.6,1.8-8.3,6.5-8.3C292.1,129.6,294.9,125.9,287.5,122.2L287.5,122.2z M1727.1,291.5
		c-24-10.2-74.9-81.4-75.8-90.6c-0.9-9.2-2.8-10.2-10.2-12c-12.9-3.7-26.8-12-26.8-12s-5.6-3.7,2.8-3.7s13.9-0.9,20.4,0.9
		c12-5.6,25-10.2,35.1-12.9c1.9-16.7,6.5-23.1,9.2-28.7c2.8-4.6,2.8-11.1-0.9-15.7l-2.8-2.8c-4.6-4.6-7.4-10.2-13.9-11.1
		c-3.7,0-12,3.7-21.3,4.6c-13.9,1.8-44.4-1.8-48.1-0.9c-6.5,1.8-32.4,21.3-32.4,17.6c0-4.6,0-7.4,1.9-11.1c2.8-1.8,5.6-4.6,9.2-6.5
		h-1.9c3.7-3.7-8.3-6.5-12-4.6c0.9-0.9-30.5,20.3-36.1,19.4c-8.3-0.9-7.4,7.4,0,7.4c6.5,0,11.1,3.7,11.1,11.1
		c0,1.8-1.9,92.5-6.5,99.9c-6.5,10.2-8.3,16.7,3.7,22.2c0,0,18.5,14.8,21.3,20.3c1.9,4.6,8.3,5.6,9.2,0c0.9-20.3-0.9-70.3,1.9-88.8
		c0.9-5.6,22.2-18.5,33.3-14.8c28.7,8.3,58.3,101.8,98.1,130.4c10.2,7.4,10.2,6.5,14.8,1.8c2.8-2.8,14.8-10.2,25-12
		C1743.7,298.9,1736.3,295.2,1727.1,291.5L1727.1,291.5z M1581.8,172.1c-13.9,6.5-26.8,10.2-27.8,5.6c-0.9-4.6-2.8-21.3,3.7-30.5
		c7.4-12,17.6-23.1,26.8-28.7c8.3-4.6,7.4,4.6,15.7,4.6c4.6,0,6.5-2.8,11.1-4.6c3.7-0.9,10.2-0.9,13-0.9c7.4,0,14.8,0,19.4,2.8
		c2.8,1.8,2.8,5.6,2.8,7.4c0.9,15.7-7.4,25.9-18.5,29.6C1619.8,159.2,1598.5,167.5,1581.8,172.1z M1469,239.7
		c-3.7,14.8-10.2,20.3-25.9,25c-17.6,5.6-71.2,7.4-88.8-1.8c-8.3-4.6-12-67.5-1.8-74c5.6-4.6,43.5-4.6,50.9-4.6
		c5.6,0,5.6,9.2,5.6,11.1c0,4.6,6.5,5.6,6.5,0c0-3.7,2.8-12.9,5.6-18.5c1.9-4.6,0-7.4-4.6-8.3c-6.5,0-2.8,6.5-13,8.3
		c-4.6,0.9-46.2,0.9-52.7-1.8c-6.5-1.8-2.8-46.2,3.7-49.9c9.2-5.6,52.7-7.4,71.2-1.8c13,3.7,20.4,12.9,26.8,24.1
		c1.8,4.6,11.1,1.8,10.2-1.8c-3.7-14.8-4.6-25-9.2-30.5c-3.7-3.7-10.2-7.4-13-7.4c-5.6,0-11.1,5.6-22.2,3.7
		c-11.1-1.9-51.8-1.8-62.9,1.8c-5.6,0.9-2.8-4.6,1.9-7.4c2.8-1.8-3.7-8.3-9.2-6.5c-7.4,2.8-18.5,17.6-37.9,18.5
		c-10.2,0.9-7.4,9.2,0,8.3c6.5-0.9,6.5,2.8,6.5,10.2c0,7.4,1.9,104.5-3.7,110.1c-7.4,7.4-10.2,13.9-1.8,18.5
		c9.2,3.7,28.7,10.2,30.5,14.8c1.8,4.6,8.3,4.6,8.3,0c0-8.3,4.6-4.6,14.8-3.7c14.8,0.9,56.4,0.9,82.3-2.8c7.4-0.9,2.8,3.7,10.2,4.6
		c6.5,0,13-9.2,14.8-14.8c1.8-8.3,1.8-20.3,1.8-25S1469.9,236.9,1469,239.7L1469,239.7z M1257.1,111.1c-8.3-5.6-6.5-5.6-14.8-2.8
		c-10.2,2.8-10.2,4.6-28.7,4.6c-24.1-0.9-99,0.9-121.2,0.9c-12,0-14.8-4.6-19.4-4.6s-13.9,5.6-14.8,6.5c-3.7,4.6-8.3,22.2-10.2,27.7
		c-1.8,4.6,9.2,5.6,11.1,1.8c7.4-13.9,13-17.6,22.2-22.2c12-5.6,47.2-3.7,55.5,0c6.5,2.8,0.9,113.8-1.9,123
		c-1.8,6.5-11.1,18.5,0,22.2c9.2,3.7,25,11.1,26.8,15.7c0.9,2.8,8.3,2.8,8.3,0c0-33.3-1.9-156.3,5.6-160.9c8.3-4.6,46.2-6.5,62,0
		c14.8,6.5,14.8,12,18.5,17.6c1.9,4.6,11.1,2.8,10.2-1.8C1261.7,129.6,1260.8,113.9,1257.1,111.1L1257.1,111.1z M565.1,134.2
		c-2.8-3.7-18.5-14.8-34.2-20.3c-5.6-1.8-20.4,1.8-30.5,1.8c-12,0-25-2.8-36.1-1.8V113v-2.8h1.8l2.8-36.1
		c0.9-12.9,3.7-20.3-9.2-17.6c-1.8,0-16.6-1.8-21.3,0c-2.8,0.9,0.9,9.2,0.9,10.2c0,3.7,5.6,0,6.5,6.5c0.9,8.3,0,37,0.9,41.6h-0.9
		v0.9c-9.2-0.9-56.4,0.9-53.6,0c-4.6-2.8-12-10.2-14.8-8.3c-10.2,7.4-27.8,17.6-36.1,20.3c5.6,5.6,9.2,8.3,8.3,20.3
		c-2.8,43.5,23.1,99.9,67.5,122.1c16.7,8.3,5.6,12,18.5,13.9c5.6,0.9,9.2,0.9,13,0c1.8,16.6,3.7,46.2-9.2,41.6
		c0.9,5.6,4.6,9.2,8.3,11.1c3.7-2.8,8.3-0.9,12-0.9c2.8,0,5.6-0.9,6.5-3.7c3.7-7.4-3.7-25-3.7-33.3v-17.6c7.4-0.9,11.1-2.8,12-8.3
		c26.8-14.8,51.8-19.4,70.3-38.8c8.3-9.2,7.4-70.3,9.2-79.6C555.8,143.5,566.9,138.8,565.1,134.2L565.1,134.2z M441.9,196.2
		c0.9,16.6-1.8,42.6-0.9,59.2c-34.2-17.6-72.2-85.1-61-121.2c0.9-1.8,5.6-5.6,11.1-5.6c3.7,0.9,8.3,5.6,12.9,4.6
		c7.4-1.8,9.2-12.9,17.6-12.9c4.6,0,15.7,1.8,22.2,1.8c0,3.7-0.9,7.4-0.9,10.2C443.9,154.6,441.9,176.8,441.9,196.2L441.9,196.2z
		 M520.7,215.6c-1.8,8.3-37.9,36.1-59.2,36.1c0-14.8-0.9-28.7-0.9-43.5c0-13.9,3.7-27.8,2.8-41.6c-0.9-10.2-1.8-21.3,0-30.5
		c0.9-4.6,0.9-8.3,0-12c10.2,0,45.3,0,54.6,12.9c4.6,6.5,4.6,24.1,4.6,39.8C522.5,193.4,522.5,209.1,520.7,215.6L520.7,215.6z
		 M789.8,68.4c-7.4-3.7-12.9-9.2-18.5-14.8c-0.9-0.9-1.8-1.8-3.7-1.8c-3.7,0-5.6,2.8-5.6,4.6c0,2.8,6.5,4.6,8.3,14.8v117.5
		c0,0.9,1.8,16.7-1.8,16.7c-1.8,0-4.6-1.8-6.5-2.8c-14.8-10.2-27.8-22.2-40.7-32.4c-28.7-23.1-57.4-46.2-86-68.4
		c-8.3,7.4-16.6,10.2-27.8,14.8c10.2,5.6,10.2,19.4,10.2,27.8c1.8,18.5,0.9,37.9,0.9,56.4c0,6.5,0,39.8-1.8,45.3
		c-1.8,4.6-5.6,9.2-5.6,13.9c0,8.3,11.1,12,14.8,21.3c0.9,0.9,1.8,3.7,4.6,3.7c2.8,0,3.7-2.8,3.7-3.7c0-46.2-1.8-92.5-1.8-139.7
		c0-0.9,0-4.6,2.8-4.6c6.5,0,123,93.4,134.1,105.4c3.7,3.7,3.7,12.9,3.7,16.6c0,7.4-1.8,14.8-1.8,22.2c0,0.9,0,3.7,2.8,3.7
		c1.8,0,4.6-2.8,4.6-3.7c2.8-4.6,5.6-9.2,10.2-12.9c1.8-1.8,2.8-2.8,2.8-5.6c0-6.5-5.6-12.9-5.6-19.4V84.3c0-1.8,0-7.4,2.8-8.3
		c2.8-0.9,6.5-0.9,6.5-3.7C794.5,70.4,791.7,69.5,789.8,68.4L789.8,68.4z M1008.2,178.6c-7.4-3.7-14.8-8.3-19.4-14.8
		c-2.8-4.6-10.2-6.5-14.8-3.7c-5.6,3.7-10.2,5.6-17.6,5.6c-8.3,0-48.1,0.9-59.2,0c-8.3-5.6-18.5-25.9-20.4-30.5
		c-2.8-7.4,8.3-7.4,19.4-7.4c4.6,0,31.4,3.7,38.8,3.7c22.2,0,25-2.8,37-4.6c6.5-1.8,18.5,1.8,22.2,1.8c6.5,1.8,9.2-4.6,4.6-6.5
		c-16.6-3.7-29.6-15.7-40.7-20.3c-9.2-4.6-13-1.8-22.2,2.8c-9.2,4.6-47.2,10.2-56.4,13.9c-2.8,0.9-8.3,3.7-11.1,2.8
		c-6.5-1.8-8.3-5.6-13-1.8c-9.2,7.4-9.2,7.4-15.7,10.2c-7.4,2.8-1.8,4.6-0.9,7.4c6.5,11.1,25,38.8,30.5,48.1
		c3.7,6.5,11.1,3.7,13,0.9c3.7-4.6,10.2-7.4,19.4-8.3h43.5c7.4,0,14.8,6.5,13,16.7c-3.7,25.9-27.8,89.7-44.4,100.8
		c-11.1,7.4-25,6.5-32.4,0.9c-4.6-2.8-17.6-12-26.8-19.4c-11.1-9.2-23.1,0.9-16.6,6.5c13,9.2,24,20.3,35.2,28.7
		c5.6,3.7,3.7,8.3,5.6,11.1c0.9,1.8,10.2,2.8,16.7,2.8c59.2,0,99.9-97.1,113.8-128.6C1009.2,189.7,1019.3,185.1,1008.2,178.6
		L1008.2,178.6z"/>
	<g>
		<path class="st0" d="M333.7,454.4h43.5v-13.9h-43.5v-18.5h74.9V408h-97.1v82.3h98.1v-15.7h-75.8L333.7,454.4z M608.5,450.7
			c0,2.8,0,7.4,0.9,13.9c-3.7-3.7-7.4-6.5-11.1-9.2l-67.5-48.1h-14.8v82.3h20.3v-44.4c0-2.8,0-6.5-0.9-12.9c2.8,2.8,5.6,4.6,8.3,6.5
			l70.3,50.9h14.8v-82.3h-20.3V450.7z M761.2,454.4h44.4v-13.9h-44.4v-18.5H837V408h-98.1v82.3h99v-15.7h-76.8L761.2,454.4z
			 M1024.9,458.9c14.8,0,21.3-4.6,21.3-15.7v-19.4c0-11.1-6.5-15.7-21.3-15.7h-81.4v82.3h22.2v-31.4H987l38.8,31.4h31.4l-44.4-31.4
			h12.1V458.9z M964.8,445v-23.1h50c6.5,0,10.2,0.9,10.2,6.5v10.2c0,5.6-2.8,6.5-10.2,6.5h-50V445z M1239.5,408h-65.7
			c-17.6,0-24,3.7-24,19.4v43.5c0,15.7,5.6,19.4,24,19.4h65.7c17.6,0,24-3.7,24-19.4v-28.7h-58.3v13.9h36.1v18.5H1172v-51.8h69.4
			v9.2l21.3-3.7v-1.8C1262.6,411.7,1256.1,408,1239.5,408z M1448.5,408l-32.4,31.4l-33.3-31.4h-29.6l50,45.3v36.1h22.2v-37l50-44.4
			H1448.5z"/>
	</g>
</g>
</svg>
